%TF.GenerationSoftware,KiCad,Pcbnew,10.0.1*%
%TF.CreationDate,2026-06-01T23:34:02+05:30*%
%TF.ProjectId,Untitled,556e7469-746c-4656-942e-6b696361645f,2*%
%TF.SameCoordinates,Original*%
%TF.FileFunction,Paste,Top*%
%TF.FilePolarity,Positive*%
%FSLAX46Y46*%
G04 Gerber Fmt 4.6, Leading zero omitted, Abs format (unit mm)*
G04 Created by KiCad (PCBNEW 10.0.1) date 2026-06-01 23:34:02*
%MOMM*%
%LPD*%
G01*
G04 APERTURE LIST*
G04 Aperture macros list*
%AMRoundRect*
0 Rectangle with rounded corners*
0 $1 Rounding radius*
0 $2 $3 $4 $5 $6 $7 $8 $9 X,Y pos of 4 corners*
0 Add a 4 corners polygon primitive as box body*
4,1,4,$2,$3,$4,$5,$6,$7,$8,$9,$2,$3,0*
0 Add four circle primitives for the rounded corners*
1,1,$1+$1,$2,$3*
1,1,$1+$1,$4,$5*
1,1,$1+$1,$6,$7*
1,1,$1+$1,$8,$9*
0 Add four rect primitives between the rounded corners*
20,1,$1+$1,$2,$3,$4,$5,0*
20,1,$1+$1,$4,$5,$6,$7,0*
20,1,$1+$1,$6,$7,$8,$9,0*
20,1,$1+$1,$8,$9,$2,$3,0*%
G04 Aperture macros list end*
%ADD10C,0.010000*%
%ADD11RoundRect,0.225000X0.225000X0.250000X-0.225000X0.250000X-0.225000X-0.250000X0.225000X-0.250000X0*%
%ADD12RoundRect,0.009450X0.410550X0.125550X-0.410550X0.125550X-0.410550X-0.125550X0.410550X-0.125550X0*%
%ADD13RoundRect,0.225000X0.250000X-0.225000X0.250000X0.225000X-0.250000X0.225000X-0.250000X-0.225000X0*%
%ADD14RoundRect,0.200000X0.200000X0.275000X-0.200000X0.275000X-0.200000X-0.275000X0.200000X-0.275000X0*%
%ADD15RoundRect,0.090000X-0.660000X-0.360000X0.660000X-0.360000X0.660000X0.360000X-0.660000X0.360000X0*%
%ADD16RoundRect,0.225000X-0.225000X-0.250000X0.225000X-0.250000X0.225000X0.250000X-0.225000X0.250000X0*%
%ADD17R,1.700000X1.000000*%
%ADD18RoundRect,0.250000X-0.500000X-1.050000X0.500000X-1.050000X0.500000X1.050000X-0.500000X1.050000X0*%
%ADD19RoundRect,0.175000X-0.175000X-0.225000X0.175000X-0.225000X0.175000X0.225000X-0.175000X0.225000X0*%
%ADD20RoundRect,0.150000X-0.150000X-0.275000X0.150000X-0.275000X0.150000X0.275000X-0.150000X0.275000X0*%
%ADD21RoundRect,0.200000X0.275000X-0.200000X0.275000X0.200000X-0.275000X0.200000X-0.275000X-0.200000X0*%
%ADD22RoundRect,0.200000X-0.200000X-0.275000X0.200000X-0.275000X0.200000X0.275000X-0.200000X0.275000X0*%
%ADD23R,0.800000X0.400000*%
%ADD24R,0.400000X0.800000*%
%ADD25R,1.200000X1.200000*%
%ADD26R,0.800000X0.800000*%
%ADD27RoundRect,0.062500X0.062500X-0.250000X0.062500X0.250000X-0.062500X0.250000X-0.062500X-0.250000X0*%
%ADD28RoundRect,0.112500X0.112500X-0.237500X0.112500X0.237500X-0.112500X0.237500X-0.112500X-0.237500X0*%
%ADD29RoundRect,0.112500X0.112500X-0.175000X0.112500X0.175000X-0.112500X0.175000X-0.112500X-0.175000X0*%
%ADD30RoundRect,0.067500X0.137500X0.067500X-0.137500X0.067500X-0.137500X-0.067500X0.137500X-0.067500X0*%
%ADD31RoundRect,0.025000X-0.100000X-0.145000X0.100000X-0.145000X0.100000X0.145000X-0.100000X0.145000X0*%
%ADD32RoundRect,0.106000X-0.644000X-0.424000X0.644000X-0.424000X0.644000X0.424000X-0.644000X0.424000X0*%
%ADD33RoundRect,0.060000X-0.240000X-0.060000X0.240000X-0.060000X0.240000X0.060000X-0.240000X0.060000X0*%
%ADD34RoundRect,0.200000X-0.275000X0.200000X-0.275000X-0.200000X0.275000X-0.200000X0.275000X0.200000X0*%
G04 APERTURE END LIST*
D10*
%TO.C,U3*%
X118990000Y-75050000D02*
X118400000Y-75050000D01*
X118400000Y-74070000D01*
X118990000Y-74070000D01*
X118990000Y-75050000D01*
G36*
X118990000Y-75050000D02*
G01*
X118400000Y-75050000D01*
X118400000Y-74070000D01*
X118990000Y-74070000D01*
X118990000Y-75050000D01*
G37*
X119730000Y-75050000D02*
X119140000Y-75050000D01*
X119140000Y-74070000D01*
X119730000Y-74070000D01*
X119730000Y-75050000D01*
G36*
X119730000Y-75050000D02*
G01*
X119140000Y-75050000D01*
X119140000Y-74070000D01*
X119730000Y-74070000D01*
X119730000Y-75050000D01*
G37*
%TO.C,U4*%
X141790000Y-77100000D02*
X140590000Y-77100000D01*
X140590000Y-76500000D01*
X141190000Y-75900000D01*
X141790000Y-75900000D01*
X141790000Y-77100000D01*
G36*
X141790000Y-77100000D02*
G01*
X140590000Y-77100000D01*
X140590000Y-76500000D01*
X141190000Y-75900000D01*
X141790000Y-75900000D01*
X141790000Y-77100000D01*
G37*
%TD*%
D11*
%TO.C,C10*%
X128365000Y-70150000D03*
X126815000Y-70150000D03*
%TD*%
D12*
%TO.C,U3*%
X120500000Y-75310000D03*
X120500000Y-74810000D03*
X120500000Y-74310000D03*
X120500000Y-73810000D03*
X117630000Y-73810000D03*
X117630000Y-74310000D03*
X117630000Y-74810000D03*
X117630000Y-75310000D03*
%TD*%
D13*
%TO.C,C6*%
X114720000Y-71300000D03*
X114720000Y-69750000D03*
%TD*%
D11*
%TO.C,C2*%
X130480000Y-65580000D03*
X128930000Y-65580000D03*
%TD*%
D14*
%TO.C,R3*%
X125790000Y-65520000D03*
X124140000Y-65520000D03*
%TD*%
D15*
%TO.C,D1*%
X171660000Y-76610000D03*
X171660000Y-79910000D03*
X176560000Y-79910000D03*
X176560000Y-76610000D03*
%TD*%
D16*
%TO.C,C12*%
X173150000Y-72020000D03*
X174700000Y-72020000D03*
%TD*%
D17*
%TO.C,RESET1*%
X160170000Y-81260000D03*
X166470000Y-81260000D03*
X160170000Y-85060000D03*
X166470000Y-85060000D03*
%TD*%
D13*
%TO.C,C1*%
X122310000Y-82710000D03*
X122310000Y-81160000D03*
%TD*%
D17*
%TO.C,BOOT1*%
X160170000Y-70390000D03*
X166470000Y-70390000D03*
X160170000Y-74190000D03*
X166470000Y-74190000D03*
%TD*%
D18*
%TO.C,D2*%
X124550000Y-89860000D03*
X121550000Y-89860000D03*
%TD*%
D16*
%TO.C,C7*%
X113790000Y-74560000D03*
X115340000Y-74560000D03*
%TD*%
D11*
%TO.C,C3*%
X119190000Y-80110000D03*
X117640000Y-80110000D03*
%TD*%
D16*
%TO.C,C11*%
X131030000Y-70030000D03*
X132580000Y-70030000D03*
%TD*%
D19*
%TO.C,J_BAT1*%
X111545000Y-85267500D03*
X115045000Y-85267500D03*
D20*
X112695000Y-81492500D03*
X113895000Y-81492500D03*
%TD*%
D21*
%TO.C,R8*%
X144510000Y-90015000D03*
X144510000Y-88365000D03*
%TD*%
%TO.C,R6*%
X152550000Y-74480000D03*
X152550000Y-72830000D03*
%TD*%
D14*
%TO.C,R5*%
X106805000Y-85160000D03*
X105155000Y-85160000D03*
%TD*%
D16*
%TO.C,C8*%
X152440000Y-78100000D03*
X153990000Y-78100000D03*
%TD*%
D22*
%TO.C,R2*%
X123740000Y-77090000D03*
X125390000Y-77090000D03*
%TD*%
D23*
%TO.C,U4*%
X135840000Y-72200000D03*
X135840000Y-73050000D03*
X135840000Y-73900000D03*
X135840000Y-74750000D03*
X135840000Y-75600000D03*
X135840000Y-76450000D03*
X135840000Y-77300000D03*
X135840000Y-78150000D03*
X135840000Y-79000000D03*
X135840000Y-79850000D03*
X135840000Y-80700000D03*
X135840000Y-81550000D03*
X135840000Y-82400000D03*
X135840000Y-83250000D03*
X135840000Y-84100000D03*
D24*
X136890000Y-85150000D03*
X137740000Y-85150000D03*
X138590000Y-85150000D03*
X139440000Y-85150000D03*
X140290000Y-85150000D03*
X141140000Y-85150000D03*
X141990000Y-85150000D03*
X142840000Y-85150000D03*
X143690000Y-85150000D03*
X144540000Y-85150000D03*
X145390000Y-85150000D03*
X146240000Y-85150000D03*
X147090000Y-85150000D03*
X147940000Y-85150000D03*
X148790000Y-85150000D03*
D23*
X149840000Y-84100000D03*
X149840000Y-83250000D03*
X149840000Y-82400000D03*
X149840000Y-81550000D03*
X149840000Y-80700000D03*
X149840000Y-79850000D03*
X149840000Y-79000000D03*
X149840000Y-78150000D03*
X149840000Y-77300000D03*
X149840000Y-76450000D03*
X149840000Y-75600000D03*
X149840000Y-74750000D03*
X149840000Y-73900000D03*
X149840000Y-73050000D03*
X149840000Y-72200000D03*
D24*
X148790000Y-71150000D03*
X147940000Y-71150000D03*
X147090000Y-71150000D03*
X146240000Y-71150000D03*
X145390000Y-71150000D03*
X144540000Y-71150000D03*
X143690000Y-71150000D03*
X142840000Y-71150000D03*
X141990000Y-71150000D03*
X141140000Y-71150000D03*
X140290000Y-71150000D03*
X139440000Y-71150000D03*
X138590000Y-71150000D03*
X137740000Y-71150000D03*
X136890000Y-71150000D03*
D25*
X142840000Y-78150000D03*
X142840000Y-76500000D03*
X144490000Y-76500000D03*
X144490000Y-78150000D03*
X144490000Y-79800000D03*
X142840000Y-79800000D03*
X141190000Y-79800000D03*
X141190000Y-78150000D03*
D26*
X135840000Y-71150000D03*
X135840000Y-85150000D03*
X149840000Y-85150000D03*
X149840000Y-71150000D03*
%TD*%
D22*
%TO.C,R1*%
X123740000Y-74580000D03*
X125390000Y-74580000D03*
%TD*%
D21*
%TO.C,R7*%
X148970000Y-90000000D03*
X148970000Y-88350000D03*
%TD*%
D27*
%TO.C,U1*%
X100097500Y-84907500D03*
X100597500Y-84907500D03*
D28*
X101097500Y-84870000D03*
D27*
X101597500Y-84907500D03*
X102097500Y-84907500D03*
X102097500Y-84132500D03*
X101597500Y-84132500D03*
D29*
X101097500Y-84107500D03*
D27*
X100597500Y-84132500D03*
X100097500Y-84132500D03*
%TD*%
D30*
%TO.C,L1*%
X129500000Y-76880000D03*
X128775000Y-76880000D03*
%TD*%
D11*
%TO.C,C5*%
X119810000Y-70590000D03*
X118260000Y-70590000D03*
%TD*%
D31*
%TO.C,U2*%
X129000000Y-80710000D03*
X129000000Y-83770000D03*
D32*
X129250000Y-81610000D03*
X129250000Y-82870000D03*
D31*
X129500000Y-80710000D03*
X129500000Y-83770000D03*
D33*
X127850000Y-81240000D03*
X127850000Y-81740000D03*
X127850000Y-82240000D03*
X127850000Y-82740000D03*
X127850000Y-83240000D03*
X130650000Y-83240000D03*
X130650000Y-82740000D03*
X130650000Y-82240000D03*
X130650000Y-81740000D03*
X130650000Y-81240000D03*
%TD*%
D34*
%TO.C,R4*%
X117800000Y-88850000D03*
X117800000Y-90500000D03*
%TD*%
D16*
%TO.C,C9*%
X152440000Y-80610000D03*
X153990000Y-80610000D03*
%TD*%
%TO.C,C4*%
X117570000Y-84370000D03*
X119120000Y-84370000D03*
%TD*%
M02*
