%TF.GenerationSoftware,KiCad,Pcbnew,10.0.1*%
%TF.CreationDate,2026-06-01T23:34:02+05:30*%
%TF.ProjectId,Untitled,556e7469-746c-4656-942e-6b696361645f,2*%
%TF.SameCoordinates,Original*%
%TF.FileFunction,Legend,Top*%
%TF.FilePolarity,Positive*%
%FSLAX46Y46*%
G04 Gerber Fmt 4.6, Leading zero omitted, Abs format (unit mm)*
G04 Created by KiCad (PCBNEW 10.0.1) date 2026-06-01 23:34:02*
%MOMM*%
%LPD*%
G01*
G04 APERTURE LIST*
%ADD10C,0.150000*%
%ADD11C,0.120000*%
%ADD12C,0.127000*%
%ADD13C,0.200000*%
G04 APERTURE END LIST*
D10*
X156396666Y-95434819D02*
X156396666Y-96149104D01*
X156396666Y-96149104D02*
X156349047Y-96291961D01*
X156349047Y-96291961D02*
X156253809Y-96387200D01*
X156253809Y-96387200D02*
X156110952Y-96434819D01*
X156110952Y-96434819D02*
X156015714Y-96434819D01*
X156825238Y-95530057D02*
X156872857Y-95482438D01*
X156872857Y-95482438D02*
X156968095Y-95434819D01*
X156968095Y-95434819D02*
X157206190Y-95434819D01*
X157206190Y-95434819D02*
X157301428Y-95482438D01*
X157301428Y-95482438D02*
X157349047Y-95530057D01*
X157349047Y-95530057D02*
X157396666Y-95625295D01*
X157396666Y-95625295D02*
X157396666Y-95720533D01*
X157396666Y-95720533D02*
X157349047Y-95863390D01*
X157349047Y-95863390D02*
X156777619Y-96434819D01*
X156777619Y-96434819D02*
X157396666Y-96434819D01*
X130036666Y-95404819D02*
X130036666Y-96119104D01*
X130036666Y-96119104D02*
X129989047Y-96261961D01*
X129989047Y-96261961D02*
X129893809Y-96357200D01*
X129893809Y-96357200D02*
X129750952Y-96404819D01*
X129750952Y-96404819D02*
X129655714Y-96404819D01*
X131036666Y-96404819D02*
X130465238Y-96404819D01*
X130750952Y-96404819D02*
X130750952Y-95404819D01*
X130750952Y-95404819D02*
X130655714Y-95547676D01*
X130655714Y-95547676D02*
X130560476Y-95642914D01*
X130560476Y-95642914D02*
X130465238Y-95690533D01*
X126947142Y-71939580D02*
X126899523Y-71987200D01*
X126899523Y-71987200D02*
X126756666Y-72034819D01*
X126756666Y-72034819D02*
X126661428Y-72034819D01*
X126661428Y-72034819D02*
X126518571Y-71987200D01*
X126518571Y-71987200D02*
X126423333Y-71891961D01*
X126423333Y-71891961D02*
X126375714Y-71796723D01*
X126375714Y-71796723D02*
X126328095Y-71606247D01*
X126328095Y-71606247D02*
X126328095Y-71463390D01*
X126328095Y-71463390D02*
X126375714Y-71272914D01*
X126375714Y-71272914D02*
X126423333Y-71177676D01*
X126423333Y-71177676D02*
X126518571Y-71082438D01*
X126518571Y-71082438D02*
X126661428Y-71034819D01*
X126661428Y-71034819D02*
X126756666Y-71034819D01*
X126756666Y-71034819D02*
X126899523Y-71082438D01*
X126899523Y-71082438D02*
X126947142Y-71130057D01*
X127899523Y-72034819D02*
X127328095Y-72034819D01*
X127613809Y-72034819D02*
X127613809Y-71034819D01*
X127613809Y-71034819D02*
X127518571Y-71177676D01*
X127518571Y-71177676D02*
X127423333Y-71272914D01*
X127423333Y-71272914D02*
X127328095Y-71320533D01*
X128518571Y-71034819D02*
X128613809Y-71034819D01*
X128613809Y-71034819D02*
X128709047Y-71082438D01*
X128709047Y-71082438D02*
X128756666Y-71130057D01*
X128756666Y-71130057D02*
X128804285Y-71225295D01*
X128804285Y-71225295D02*
X128851904Y-71415771D01*
X128851904Y-71415771D02*
X128851904Y-71653866D01*
X128851904Y-71653866D02*
X128804285Y-71844342D01*
X128804285Y-71844342D02*
X128756666Y-71939580D01*
X128756666Y-71939580D02*
X128709047Y-71987200D01*
X128709047Y-71987200D02*
X128613809Y-72034819D01*
X128613809Y-72034819D02*
X128518571Y-72034819D01*
X128518571Y-72034819D02*
X128423333Y-71987200D01*
X128423333Y-71987200D02*
X128375714Y-71939580D01*
X128375714Y-71939580D02*
X128328095Y-71844342D01*
X128328095Y-71844342D02*
X128280476Y-71653866D01*
X128280476Y-71653866D02*
X128280476Y-71415771D01*
X128280476Y-71415771D02*
X128328095Y-71225295D01*
X128328095Y-71225295D02*
X128375714Y-71130057D01*
X128375714Y-71130057D02*
X128423333Y-71082438D01*
X128423333Y-71082438D02*
X128518571Y-71034819D01*
D11*
X118975285Y-75900617D02*
X118975285Y-76289188D01*
X118975285Y-76289188D02*
X118998142Y-76334902D01*
X118998142Y-76334902D02*
X119021000Y-76357760D01*
X119021000Y-76357760D02*
X119066714Y-76380617D01*
X119066714Y-76380617D02*
X119158142Y-76380617D01*
X119158142Y-76380617D02*
X119203857Y-76357760D01*
X119203857Y-76357760D02*
X119226714Y-76334902D01*
X119226714Y-76334902D02*
X119249571Y-76289188D01*
X119249571Y-76289188D02*
X119249571Y-75900617D01*
X119432428Y-75900617D02*
X119729571Y-75900617D01*
X119729571Y-75900617D02*
X119569571Y-76083474D01*
X119569571Y-76083474D02*
X119638142Y-76083474D01*
X119638142Y-76083474D02*
X119683857Y-76106331D01*
X119683857Y-76106331D02*
X119706714Y-76129188D01*
X119706714Y-76129188D02*
X119729571Y-76174902D01*
X119729571Y-76174902D02*
X119729571Y-76289188D01*
X119729571Y-76289188D02*
X119706714Y-76334902D01*
X119706714Y-76334902D02*
X119683857Y-76357760D01*
X119683857Y-76357760D02*
X119638142Y-76380617D01*
X119638142Y-76380617D02*
X119500999Y-76380617D01*
X119500999Y-76380617D02*
X119455285Y-76357760D01*
X119455285Y-76357760D02*
X119432428Y-76334902D01*
D10*
X113649580Y-70691666D02*
X113697200Y-70739285D01*
X113697200Y-70739285D02*
X113744819Y-70882142D01*
X113744819Y-70882142D02*
X113744819Y-70977380D01*
X113744819Y-70977380D02*
X113697200Y-71120237D01*
X113697200Y-71120237D02*
X113601961Y-71215475D01*
X113601961Y-71215475D02*
X113506723Y-71263094D01*
X113506723Y-71263094D02*
X113316247Y-71310713D01*
X113316247Y-71310713D02*
X113173390Y-71310713D01*
X113173390Y-71310713D02*
X112982914Y-71263094D01*
X112982914Y-71263094D02*
X112887676Y-71215475D01*
X112887676Y-71215475D02*
X112792438Y-71120237D01*
X112792438Y-71120237D02*
X112744819Y-70977380D01*
X112744819Y-70977380D02*
X112744819Y-70882142D01*
X112744819Y-70882142D02*
X112792438Y-70739285D01*
X112792438Y-70739285D02*
X112840057Y-70691666D01*
X112744819Y-69834523D02*
X112744819Y-70024999D01*
X112744819Y-70024999D02*
X112792438Y-70120237D01*
X112792438Y-70120237D02*
X112840057Y-70167856D01*
X112840057Y-70167856D02*
X112982914Y-70263094D01*
X112982914Y-70263094D02*
X113173390Y-70310713D01*
X113173390Y-70310713D02*
X113554342Y-70310713D01*
X113554342Y-70310713D02*
X113649580Y-70263094D01*
X113649580Y-70263094D02*
X113697200Y-70215475D01*
X113697200Y-70215475D02*
X113744819Y-70120237D01*
X113744819Y-70120237D02*
X113744819Y-69929761D01*
X113744819Y-69929761D02*
X113697200Y-69834523D01*
X113697200Y-69834523D02*
X113649580Y-69786904D01*
X113649580Y-69786904D02*
X113554342Y-69739285D01*
X113554342Y-69739285D02*
X113316247Y-69739285D01*
X113316247Y-69739285D02*
X113221009Y-69786904D01*
X113221009Y-69786904D02*
X113173390Y-69834523D01*
X113173390Y-69834523D02*
X113125771Y-69929761D01*
X113125771Y-69929761D02*
X113125771Y-70120237D01*
X113125771Y-70120237D02*
X113173390Y-70215475D01*
X113173390Y-70215475D02*
X113221009Y-70263094D01*
X113221009Y-70263094D02*
X113316247Y-70310713D01*
X129538333Y-67369580D02*
X129490714Y-67417200D01*
X129490714Y-67417200D02*
X129347857Y-67464819D01*
X129347857Y-67464819D02*
X129252619Y-67464819D01*
X129252619Y-67464819D02*
X129109762Y-67417200D01*
X129109762Y-67417200D02*
X129014524Y-67321961D01*
X129014524Y-67321961D02*
X128966905Y-67226723D01*
X128966905Y-67226723D02*
X128919286Y-67036247D01*
X128919286Y-67036247D02*
X128919286Y-66893390D01*
X128919286Y-66893390D02*
X128966905Y-66702914D01*
X128966905Y-66702914D02*
X129014524Y-66607676D01*
X129014524Y-66607676D02*
X129109762Y-66512438D01*
X129109762Y-66512438D02*
X129252619Y-66464819D01*
X129252619Y-66464819D02*
X129347857Y-66464819D01*
X129347857Y-66464819D02*
X129490714Y-66512438D01*
X129490714Y-66512438D02*
X129538333Y-66560057D01*
X129919286Y-66560057D02*
X129966905Y-66512438D01*
X129966905Y-66512438D02*
X130062143Y-66464819D01*
X130062143Y-66464819D02*
X130300238Y-66464819D01*
X130300238Y-66464819D02*
X130395476Y-66512438D01*
X130395476Y-66512438D02*
X130443095Y-66560057D01*
X130443095Y-66560057D02*
X130490714Y-66655295D01*
X130490714Y-66655295D02*
X130490714Y-66750533D01*
X130490714Y-66750533D02*
X130443095Y-66893390D01*
X130443095Y-66893390D02*
X129871667Y-67464819D01*
X129871667Y-67464819D02*
X130490714Y-67464819D01*
X109979819Y-78563333D02*
X110694104Y-78563333D01*
X110694104Y-78563333D02*
X110836961Y-78610952D01*
X110836961Y-78610952D02*
X110932200Y-78706190D01*
X110932200Y-78706190D02*
X110979819Y-78849047D01*
X110979819Y-78849047D02*
X110979819Y-78944285D01*
X110456009Y-77753809D02*
X110503628Y-77610952D01*
X110503628Y-77610952D02*
X110551247Y-77563333D01*
X110551247Y-77563333D02*
X110646485Y-77515714D01*
X110646485Y-77515714D02*
X110789342Y-77515714D01*
X110789342Y-77515714D02*
X110884580Y-77563333D01*
X110884580Y-77563333D02*
X110932200Y-77610952D01*
X110932200Y-77610952D02*
X110979819Y-77706190D01*
X110979819Y-77706190D02*
X110979819Y-78087142D01*
X110979819Y-78087142D02*
X109979819Y-78087142D01*
X109979819Y-78087142D02*
X109979819Y-77753809D01*
X109979819Y-77753809D02*
X110027438Y-77658571D01*
X110027438Y-77658571D02*
X110075057Y-77610952D01*
X110075057Y-77610952D02*
X110170295Y-77563333D01*
X110170295Y-77563333D02*
X110265533Y-77563333D01*
X110265533Y-77563333D02*
X110360771Y-77610952D01*
X110360771Y-77610952D02*
X110408390Y-77658571D01*
X110408390Y-77658571D02*
X110456009Y-77753809D01*
X110456009Y-77753809D02*
X110456009Y-78087142D01*
X109979819Y-77087142D02*
X110789342Y-77087142D01*
X110789342Y-77087142D02*
X110884580Y-77039523D01*
X110884580Y-77039523D02*
X110932200Y-76991904D01*
X110932200Y-76991904D02*
X110979819Y-76896666D01*
X110979819Y-76896666D02*
X110979819Y-76706190D01*
X110979819Y-76706190D02*
X110932200Y-76610952D01*
X110932200Y-76610952D02*
X110884580Y-76563333D01*
X110884580Y-76563333D02*
X110789342Y-76515714D01*
X110789342Y-76515714D02*
X109979819Y-76515714D01*
X110932200Y-76087142D02*
X110979819Y-75944285D01*
X110979819Y-75944285D02*
X110979819Y-75706190D01*
X110979819Y-75706190D02*
X110932200Y-75610952D01*
X110932200Y-75610952D02*
X110884580Y-75563333D01*
X110884580Y-75563333D02*
X110789342Y-75515714D01*
X110789342Y-75515714D02*
X110694104Y-75515714D01*
X110694104Y-75515714D02*
X110598866Y-75563333D01*
X110598866Y-75563333D02*
X110551247Y-75610952D01*
X110551247Y-75610952D02*
X110503628Y-75706190D01*
X110503628Y-75706190D02*
X110456009Y-75896666D01*
X110456009Y-75896666D02*
X110408390Y-75991904D01*
X110408390Y-75991904D02*
X110360771Y-76039523D01*
X110360771Y-76039523D02*
X110265533Y-76087142D01*
X110265533Y-76087142D02*
X110170295Y-76087142D01*
X110170295Y-76087142D02*
X110075057Y-76039523D01*
X110075057Y-76039523D02*
X110027438Y-75991904D01*
X110027438Y-75991904D02*
X109979819Y-75896666D01*
X109979819Y-75896666D02*
X109979819Y-75658571D01*
X109979819Y-75658571D02*
X110027438Y-75515714D01*
X110979819Y-74563333D02*
X110979819Y-75134761D01*
X110979819Y-74849047D02*
X109979819Y-74849047D01*
X109979819Y-74849047D02*
X110122676Y-74944285D01*
X110122676Y-74944285D02*
X110217914Y-75039523D01*
X110217914Y-75039523D02*
X110265533Y-75134761D01*
X124798333Y-67404819D02*
X124465000Y-66928628D01*
X124226905Y-67404819D02*
X124226905Y-66404819D01*
X124226905Y-66404819D02*
X124607857Y-66404819D01*
X124607857Y-66404819D02*
X124703095Y-66452438D01*
X124703095Y-66452438D02*
X124750714Y-66500057D01*
X124750714Y-66500057D02*
X124798333Y-66595295D01*
X124798333Y-66595295D02*
X124798333Y-66738152D01*
X124798333Y-66738152D02*
X124750714Y-66833390D01*
X124750714Y-66833390D02*
X124703095Y-66881009D01*
X124703095Y-66881009D02*
X124607857Y-66928628D01*
X124607857Y-66928628D02*
X124226905Y-66928628D01*
X125131667Y-66404819D02*
X125750714Y-66404819D01*
X125750714Y-66404819D02*
X125417381Y-66785771D01*
X125417381Y-66785771D02*
X125560238Y-66785771D01*
X125560238Y-66785771D02*
X125655476Y-66833390D01*
X125655476Y-66833390D02*
X125703095Y-66881009D01*
X125703095Y-66881009D02*
X125750714Y-66976247D01*
X125750714Y-66976247D02*
X125750714Y-67214342D01*
X125750714Y-67214342D02*
X125703095Y-67309580D01*
X125703095Y-67309580D02*
X125655476Y-67357200D01*
X125655476Y-67357200D02*
X125560238Y-67404819D01*
X125560238Y-67404819D02*
X125274524Y-67404819D01*
X125274524Y-67404819D02*
X125179286Y-67357200D01*
X125179286Y-67357200D02*
X125131667Y-67309580D01*
X173371905Y-75214819D02*
X173371905Y-74214819D01*
X173371905Y-74214819D02*
X173610000Y-74214819D01*
X173610000Y-74214819D02*
X173752857Y-74262438D01*
X173752857Y-74262438D02*
X173848095Y-74357676D01*
X173848095Y-74357676D02*
X173895714Y-74452914D01*
X173895714Y-74452914D02*
X173943333Y-74643390D01*
X173943333Y-74643390D02*
X173943333Y-74786247D01*
X173943333Y-74786247D02*
X173895714Y-74976723D01*
X173895714Y-74976723D02*
X173848095Y-75071961D01*
X173848095Y-75071961D02*
X173752857Y-75167200D01*
X173752857Y-75167200D02*
X173610000Y-75214819D01*
X173610000Y-75214819D02*
X173371905Y-75214819D01*
X174895714Y-75214819D02*
X174324286Y-75214819D01*
X174610000Y-75214819D02*
X174610000Y-74214819D01*
X174610000Y-74214819D02*
X174514762Y-74357676D01*
X174514762Y-74357676D02*
X174419524Y-74452914D01*
X174419524Y-74452914D02*
X174324286Y-74500533D01*
X170338571Y-77022295D02*
X169881428Y-77022295D01*
X170110000Y-77022295D02*
X170110000Y-76222295D01*
X170110000Y-76222295D02*
X170033809Y-76336580D01*
X170033809Y-76336580D02*
X169957619Y-76412771D01*
X169957619Y-76412771D02*
X169881428Y-76450866D01*
X171999580Y-72872857D02*
X172047200Y-72920476D01*
X172047200Y-72920476D02*
X172094819Y-73063333D01*
X172094819Y-73063333D02*
X172094819Y-73158571D01*
X172094819Y-73158571D02*
X172047200Y-73301428D01*
X172047200Y-73301428D02*
X171951961Y-73396666D01*
X171951961Y-73396666D02*
X171856723Y-73444285D01*
X171856723Y-73444285D02*
X171666247Y-73491904D01*
X171666247Y-73491904D02*
X171523390Y-73491904D01*
X171523390Y-73491904D02*
X171332914Y-73444285D01*
X171332914Y-73444285D02*
X171237676Y-73396666D01*
X171237676Y-73396666D02*
X171142438Y-73301428D01*
X171142438Y-73301428D02*
X171094819Y-73158571D01*
X171094819Y-73158571D02*
X171094819Y-73063333D01*
X171094819Y-73063333D02*
X171142438Y-72920476D01*
X171142438Y-72920476D02*
X171190057Y-72872857D01*
X172094819Y-71920476D02*
X172094819Y-72491904D01*
X172094819Y-72206190D02*
X171094819Y-72206190D01*
X171094819Y-72206190D02*
X171237676Y-72301428D01*
X171237676Y-72301428D02*
X171332914Y-72396666D01*
X171332914Y-72396666D02*
X171380533Y-72491904D01*
X171190057Y-71539523D02*
X171142438Y-71491904D01*
X171142438Y-71491904D02*
X171094819Y-71396666D01*
X171094819Y-71396666D02*
X171094819Y-71158571D01*
X171094819Y-71158571D02*
X171142438Y-71063333D01*
X171142438Y-71063333D02*
X171190057Y-71015714D01*
X171190057Y-71015714D02*
X171285295Y-70968095D01*
X171285295Y-70968095D02*
X171380533Y-70968095D01*
X171380533Y-70968095D02*
X171523390Y-71015714D01*
X171523390Y-71015714D02*
X172094819Y-71587142D01*
X172094819Y-71587142D02*
X172094819Y-70968095D01*
X161391428Y-79864819D02*
X161058095Y-79388628D01*
X160820000Y-79864819D02*
X160820000Y-78864819D01*
X160820000Y-78864819D02*
X161200952Y-78864819D01*
X161200952Y-78864819D02*
X161296190Y-78912438D01*
X161296190Y-78912438D02*
X161343809Y-78960057D01*
X161343809Y-78960057D02*
X161391428Y-79055295D01*
X161391428Y-79055295D02*
X161391428Y-79198152D01*
X161391428Y-79198152D02*
X161343809Y-79293390D01*
X161343809Y-79293390D02*
X161296190Y-79341009D01*
X161296190Y-79341009D02*
X161200952Y-79388628D01*
X161200952Y-79388628D02*
X160820000Y-79388628D01*
X161820000Y-79341009D02*
X162153333Y-79341009D01*
X162296190Y-79864819D02*
X161820000Y-79864819D01*
X161820000Y-79864819D02*
X161820000Y-78864819D01*
X161820000Y-78864819D02*
X162296190Y-78864819D01*
X162677143Y-79817200D02*
X162820000Y-79864819D01*
X162820000Y-79864819D02*
X163058095Y-79864819D01*
X163058095Y-79864819D02*
X163153333Y-79817200D01*
X163153333Y-79817200D02*
X163200952Y-79769580D01*
X163200952Y-79769580D02*
X163248571Y-79674342D01*
X163248571Y-79674342D02*
X163248571Y-79579104D01*
X163248571Y-79579104D02*
X163200952Y-79483866D01*
X163200952Y-79483866D02*
X163153333Y-79436247D01*
X163153333Y-79436247D02*
X163058095Y-79388628D01*
X163058095Y-79388628D02*
X162867619Y-79341009D01*
X162867619Y-79341009D02*
X162772381Y-79293390D01*
X162772381Y-79293390D02*
X162724762Y-79245771D01*
X162724762Y-79245771D02*
X162677143Y-79150533D01*
X162677143Y-79150533D02*
X162677143Y-79055295D01*
X162677143Y-79055295D02*
X162724762Y-78960057D01*
X162724762Y-78960057D02*
X162772381Y-78912438D01*
X162772381Y-78912438D02*
X162867619Y-78864819D01*
X162867619Y-78864819D02*
X163105714Y-78864819D01*
X163105714Y-78864819D02*
X163248571Y-78912438D01*
X163677143Y-79341009D02*
X164010476Y-79341009D01*
X164153333Y-79864819D02*
X163677143Y-79864819D01*
X163677143Y-79864819D02*
X163677143Y-78864819D01*
X163677143Y-78864819D02*
X164153333Y-78864819D01*
X164439048Y-78864819D02*
X165010476Y-78864819D01*
X164724762Y-79864819D02*
X164724762Y-78864819D01*
X165867619Y-79864819D02*
X165296191Y-79864819D01*
X165581905Y-79864819D02*
X165581905Y-78864819D01*
X165581905Y-78864819D02*
X165486667Y-79007676D01*
X165486667Y-79007676D02*
X165391429Y-79102914D01*
X165391429Y-79102914D02*
X165296191Y-79150533D01*
X121239580Y-82101666D02*
X121287200Y-82149285D01*
X121287200Y-82149285D02*
X121334819Y-82292142D01*
X121334819Y-82292142D02*
X121334819Y-82387380D01*
X121334819Y-82387380D02*
X121287200Y-82530237D01*
X121287200Y-82530237D02*
X121191961Y-82625475D01*
X121191961Y-82625475D02*
X121096723Y-82673094D01*
X121096723Y-82673094D02*
X120906247Y-82720713D01*
X120906247Y-82720713D02*
X120763390Y-82720713D01*
X120763390Y-82720713D02*
X120572914Y-82673094D01*
X120572914Y-82673094D02*
X120477676Y-82625475D01*
X120477676Y-82625475D02*
X120382438Y-82530237D01*
X120382438Y-82530237D02*
X120334819Y-82387380D01*
X120334819Y-82387380D02*
X120334819Y-82292142D01*
X120334819Y-82292142D02*
X120382438Y-82149285D01*
X120382438Y-82149285D02*
X120430057Y-82101666D01*
X121334819Y-81149285D02*
X121334819Y-81720713D01*
X121334819Y-81434999D02*
X120334819Y-81434999D01*
X120334819Y-81434999D02*
X120477676Y-81530237D01*
X120477676Y-81530237D02*
X120572914Y-81625475D01*
X120572914Y-81625475D02*
X120620533Y-81720713D01*
X161486666Y-68471009D02*
X161629523Y-68518628D01*
X161629523Y-68518628D02*
X161677142Y-68566247D01*
X161677142Y-68566247D02*
X161724761Y-68661485D01*
X161724761Y-68661485D02*
X161724761Y-68804342D01*
X161724761Y-68804342D02*
X161677142Y-68899580D01*
X161677142Y-68899580D02*
X161629523Y-68947200D01*
X161629523Y-68947200D02*
X161534285Y-68994819D01*
X161534285Y-68994819D02*
X161153333Y-68994819D01*
X161153333Y-68994819D02*
X161153333Y-67994819D01*
X161153333Y-67994819D02*
X161486666Y-67994819D01*
X161486666Y-67994819D02*
X161581904Y-68042438D01*
X161581904Y-68042438D02*
X161629523Y-68090057D01*
X161629523Y-68090057D02*
X161677142Y-68185295D01*
X161677142Y-68185295D02*
X161677142Y-68280533D01*
X161677142Y-68280533D02*
X161629523Y-68375771D01*
X161629523Y-68375771D02*
X161581904Y-68423390D01*
X161581904Y-68423390D02*
X161486666Y-68471009D01*
X161486666Y-68471009D02*
X161153333Y-68471009D01*
X162343809Y-67994819D02*
X162534285Y-67994819D01*
X162534285Y-67994819D02*
X162629523Y-68042438D01*
X162629523Y-68042438D02*
X162724761Y-68137676D01*
X162724761Y-68137676D02*
X162772380Y-68328152D01*
X162772380Y-68328152D02*
X162772380Y-68661485D01*
X162772380Y-68661485D02*
X162724761Y-68851961D01*
X162724761Y-68851961D02*
X162629523Y-68947200D01*
X162629523Y-68947200D02*
X162534285Y-68994819D01*
X162534285Y-68994819D02*
X162343809Y-68994819D01*
X162343809Y-68994819D02*
X162248571Y-68947200D01*
X162248571Y-68947200D02*
X162153333Y-68851961D01*
X162153333Y-68851961D02*
X162105714Y-68661485D01*
X162105714Y-68661485D02*
X162105714Y-68328152D01*
X162105714Y-68328152D02*
X162153333Y-68137676D01*
X162153333Y-68137676D02*
X162248571Y-68042438D01*
X162248571Y-68042438D02*
X162343809Y-67994819D01*
X163391428Y-67994819D02*
X163581904Y-67994819D01*
X163581904Y-67994819D02*
X163677142Y-68042438D01*
X163677142Y-68042438D02*
X163772380Y-68137676D01*
X163772380Y-68137676D02*
X163819999Y-68328152D01*
X163819999Y-68328152D02*
X163819999Y-68661485D01*
X163819999Y-68661485D02*
X163772380Y-68851961D01*
X163772380Y-68851961D02*
X163677142Y-68947200D01*
X163677142Y-68947200D02*
X163581904Y-68994819D01*
X163581904Y-68994819D02*
X163391428Y-68994819D01*
X163391428Y-68994819D02*
X163296190Y-68947200D01*
X163296190Y-68947200D02*
X163200952Y-68851961D01*
X163200952Y-68851961D02*
X163153333Y-68661485D01*
X163153333Y-68661485D02*
X163153333Y-68328152D01*
X163153333Y-68328152D02*
X163200952Y-68137676D01*
X163200952Y-68137676D02*
X163296190Y-68042438D01*
X163296190Y-68042438D02*
X163391428Y-67994819D01*
X164105714Y-67994819D02*
X164677142Y-67994819D01*
X164391428Y-68994819D02*
X164391428Y-67994819D01*
X165534285Y-68994819D02*
X164962857Y-68994819D01*
X165248571Y-68994819D02*
X165248571Y-67994819D01*
X165248571Y-67994819D02*
X165153333Y-68137676D01*
X165153333Y-68137676D02*
X165058095Y-68232914D01*
X165058095Y-68232914D02*
X164962857Y-68280533D01*
X122311905Y-87814819D02*
X122311905Y-86814819D01*
X122311905Y-86814819D02*
X122550000Y-86814819D01*
X122550000Y-86814819D02*
X122692857Y-86862438D01*
X122692857Y-86862438D02*
X122788095Y-86957676D01*
X122788095Y-86957676D02*
X122835714Y-87052914D01*
X122835714Y-87052914D02*
X122883333Y-87243390D01*
X122883333Y-87243390D02*
X122883333Y-87386247D01*
X122883333Y-87386247D02*
X122835714Y-87576723D01*
X122835714Y-87576723D02*
X122788095Y-87671961D01*
X122788095Y-87671961D02*
X122692857Y-87767200D01*
X122692857Y-87767200D02*
X122550000Y-87814819D01*
X122550000Y-87814819D02*
X122311905Y-87814819D01*
X123264286Y-86910057D02*
X123311905Y-86862438D01*
X123311905Y-86862438D02*
X123407143Y-86814819D01*
X123407143Y-86814819D02*
X123645238Y-86814819D01*
X123645238Y-86814819D02*
X123740476Y-86862438D01*
X123740476Y-86862438D02*
X123788095Y-86910057D01*
X123788095Y-86910057D02*
X123835714Y-87005295D01*
X123835714Y-87005295D02*
X123835714Y-87100533D01*
X123835714Y-87100533D02*
X123788095Y-87243390D01*
X123788095Y-87243390D02*
X123216667Y-87814819D01*
X123216667Y-87814819D02*
X123835714Y-87814819D01*
X114398333Y-73489580D02*
X114350714Y-73537200D01*
X114350714Y-73537200D02*
X114207857Y-73584819D01*
X114207857Y-73584819D02*
X114112619Y-73584819D01*
X114112619Y-73584819D02*
X113969762Y-73537200D01*
X113969762Y-73537200D02*
X113874524Y-73441961D01*
X113874524Y-73441961D02*
X113826905Y-73346723D01*
X113826905Y-73346723D02*
X113779286Y-73156247D01*
X113779286Y-73156247D02*
X113779286Y-73013390D01*
X113779286Y-73013390D02*
X113826905Y-72822914D01*
X113826905Y-72822914D02*
X113874524Y-72727676D01*
X113874524Y-72727676D02*
X113969762Y-72632438D01*
X113969762Y-72632438D02*
X114112619Y-72584819D01*
X114112619Y-72584819D02*
X114207857Y-72584819D01*
X114207857Y-72584819D02*
X114350714Y-72632438D01*
X114350714Y-72632438D02*
X114398333Y-72680057D01*
X114731667Y-72584819D02*
X115398333Y-72584819D01*
X115398333Y-72584819D02*
X114969762Y-73584819D01*
X118248333Y-81899580D02*
X118200714Y-81947200D01*
X118200714Y-81947200D02*
X118057857Y-81994819D01*
X118057857Y-81994819D02*
X117962619Y-81994819D01*
X117962619Y-81994819D02*
X117819762Y-81947200D01*
X117819762Y-81947200D02*
X117724524Y-81851961D01*
X117724524Y-81851961D02*
X117676905Y-81756723D01*
X117676905Y-81756723D02*
X117629286Y-81566247D01*
X117629286Y-81566247D02*
X117629286Y-81423390D01*
X117629286Y-81423390D02*
X117676905Y-81232914D01*
X117676905Y-81232914D02*
X117724524Y-81137676D01*
X117724524Y-81137676D02*
X117819762Y-81042438D01*
X117819762Y-81042438D02*
X117962619Y-80994819D01*
X117962619Y-80994819D02*
X118057857Y-80994819D01*
X118057857Y-80994819D02*
X118200714Y-81042438D01*
X118200714Y-81042438D02*
X118248333Y-81090057D01*
X118581667Y-80994819D02*
X119200714Y-80994819D01*
X119200714Y-80994819D02*
X118867381Y-81375771D01*
X118867381Y-81375771D02*
X119010238Y-81375771D01*
X119010238Y-81375771D02*
X119105476Y-81423390D01*
X119105476Y-81423390D02*
X119153095Y-81471009D01*
X119153095Y-81471009D02*
X119200714Y-81566247D01*
X119200714Y-81566247D02*
X119200714Y-81804342D01*
X119200714Y-81804342D02*
X119153095Y-81899580D01*
X119153095Y-81899580D02*
X119105476Y-81947200D01*
X119105476Y-81947200D02*
X119010238Y-81994819D01*
X119010238Y-81994819D02*
X118724524Y-81994819D01*
X118724524Y-81994819D02*
X118629286Y-81947200D01*
X118629286Y-81947200D02*
X118581667Y-81899580D01*
X131162142Y-68959580D02*
X131114523Y-69007200D01*
X131114523Y-69007200D02*
X130971666Y-69054819D01*
X130971666Y-69054819D02*
X130876428Y-69054819D01*
X130876428Y-69054819D02*
X130733571Y-69007200D01*
X130733571Y-69007200D02*
X130638333Y-68911961D01*
X130638333Y-68911961D02*
X130590714Y-68816723D01*
X130590714Y-68816723D02*
X130543095Y-68626247D01*
X130543095Y-68626247D02*
X130543095Y-68483390D01*
X130543095Y-68483390D02*
X130590714Y-68292914D01*
X130590714Y-68292914D02*
X130638333Y-68197676D01*
X130638333Y-68197676D02*
X130733571Y-68102438D01*
X130733571Y-68102438D02*
X130876428Y-68054819D01*
X130876428Y-68054819D02*
X130971666Y-68054819D01*
X130971666Y-68054819D02*
X131114523Y-68102438D01*
X131114523Y-68102438D02*
X131162142Y-68150057D01*
X132114523Y-69054819D02*
X131543095Y-69054819D01*
X131828809Y-69054819D02*
X131828809Y-68054819D01*
X131828809Y-68054819D02*
X131733571Y-68197676D01*
X131733571Y-68197676D02*
X131638333Y-68292914D01*
X131638333Y-68292914D02*
X131543095Y-68340533D01*
X133066904Y-69054819D02*
X132495476Y-69054819D01*
X132781190Y-69054819D02*
X132781190Y-68054819D01*
X132781190Y-68054819D02*
X132685952Y-68197676D01*
X132685952Y-68197676D02*
X132590714Y-68292914D01*
X132590714Y-68292914D02*
X132495476Y-68340533D01*
X111271190Y-79314819D02*
X111271190Y-80029104D01*
X111271190Y-80029104D02*
X111223571Y-80171961D01*
X111223571Y-80171961D02*
X111128333Y-80267200D01*
X111128333Y-80267200D02*
X110985476Y-80314819D01*
X110985476Y-80314819D02*
X110890238Y-80314819D01*
X111509286Y-80410057D02*
X112271190Y-80410057D01*
X112842619Y-79791009D02*
X112985476Y-79838628D01*
X112985476Y-79838628D02*
X113033095Y-79886247D01*
X113033095Y-79886247D02*
X113080714Y-79981485D01*
X113080714Y-79981485D02*
X113080714Y-80124342D01*
X113080714Y-80124342D02*
X113033095Y-80219580D01*
X113033095Y-80219580D02*
X112985476Y-80267200D01*
X112985476Y-80267200D02*
X112890238Y-80314819D01*
X112890238Y-80314819D02*
X112509286Y-80314819D01*
X112509286Y-80314819D02*
X112509286Y-79314819D01*
X112509286Y-79314819D02*
X112842619Y-79314819D01*
X112842619Y-79314819D02*
X112937857Y-79362438D01*
X112937857Y-79362438D02*
X112985476Y-79410057D01*
X112985476Y-79410057D02*
X113033095Y-79505295D01*
X113033095Y-79505295D02*
X113033095Y-79600533D01*
X113033095Y-79600533D02*
X112985476Y-79695771D01*
X112985476Y-79695771D02*
X112937857Y-79743390D01*
X112937857Y-79743390D02*
X112842619Y-79791009D01*
X112842619Y-79791009D02*
X112509286Y-79791009D01*
X113461667Y-80029104D02*
X113937857Y-80029104D01*
X113366429Y-80314819D02*
X113699762Y-79314819D01*
X113699762Y-79314819D02*
X114033095Y-80314819D01*
X114223572Y-79314819D02*
X114795000Y-79314819D01*
X114509286Y-80314819D02*
X114509286Y-79314819D01*
X115652143Y-80314819D02*
X115080715Y-80314819D01*
X115366429Y-80314819D02*
X115366429Y-79314819D01*
X115366429Y-79314819D02*
X115271191Y-79457676D01*
X115271191Y-79457676D02*
X115175953Y-79552914D01*
X115175953Y-79552914D02*
X115080715Y-79600533D01*
X143534819Y-89356666D02*
X143058628Y-89689999D01*
X143534819Y-89928094D02*
X142534819Y-89928094D01*
X142534819Y-89928094D02*
X142534819Y-89547142D01*
X142534819Y-89547142D02*
X142582438Y-89451904D01*
X142582438Y-89451904D02*
X142630057Y-89404285D01*
X142630057Y-89404285D02*
X142725295Y-89356666D01*
X142725295Y-89356666D02*
X142868152Y-89356666D01*
X142868152Y-89356666D02*
X142963390Y-89404285D01*
X142963390Y-89404285D02*
X143011009Y-89451904D01*
X143011009Y-89451904D02*
X143058628Y-89547142D01*
X143058628Y-89547142D02*
X143058628Y-89928094D01*
X142963390Y-88785237D02*
X142915771Y-88880475D01*
X142915771Y-88880475D02*
X142868152Y-88928094D01*
X142868152Y-88928094D02*
X142772914Y-88975713D01*
X142772914Y-88975713D02*
X142725295Y-88975713D01*
X142725295Y-88975713D02*
X142630057Y-88928094D01*
X142630057Y-88928094D02*
X142582438Y-88880475D01*
X142582438Y-88880475D02*
X142534819Y-88785237D01*
X142534819Y-88785237D02*
X142534819Y-88594761D01*
X142534819Y-88594761D02*
X142582438Y-88499523D01*
X142582438Y-88499523D02*
X142630057Y-88451904D01*
X142630057Y-88451904D02*
X142725295Y-88404285D01*
X142725295Y-88404285D02*
X142772914Y-88404285D01*
X142772914Y-88404285D02*
X142868152Y-88451904D01*
X142868152Y-88451904D02*
X142915771Y-88499523D01*
X142915771Y-88499523D02*
X142963390Y-88594761D01*
X142963390Y-88594761D02*
X142963390Y-88785237D01*
X142963390Y-88785237D02*
X143011009Y-88880475D01*
X143011009Y-88880475D02*
X143058628Y-88928094D01*
X143058628Y-88928094D02*
X143153866Y-88975713D01*
X143153866Y-88975713D02*
X143344342Y-88975713D01*
X143344342Y-88975713D02*
X143439580Y-88928094D01*
X143439580Y-88928094D02*
X143487200Y-88880475D01*
X143487200Y-88880475D02*
X143534819Y-88785237D01*
X143534819Y-88785237D02*
X143534819Y-88594761D01*
X143534819Y-88594761D02*
X143487200Y-88499523D01*
X143487200Y-88499523D02*
X143439580Y-88451904D01*
X143439580Y-88451904D02*
X143344342Y-88404285D01*
X143344342Y-88404285D02*
X143153866Y-88404285D01*
X143153866Y-88404285D02*
X143058628Y-88451904D01*
X143058628Y-88451904D02*
X143011009Y-88499523D01*
X143011009Y-88499523D02*
X142963390Y-88594761D01*
X151574819Y-73821666D02*
X151098628Y-74154999D01*
X151574819Y-74393094D02*
X150574819Y-74393094D01*
X150574819Y-74393094D02*
X150574819Y-74012142D01*
X150574819Y-74012142D02*
X150622438Y-73916904D01*
X150622438Y-73916904D02*
X150670057Y-73869285D01*
X150670057Y-73869285D02*
X150765295Y-73821666D01*
X150765295Y-73821666D02*
X150908152Y-73821666D01*
X150908152Y-73821666D02*
X151003390Y-73869285D01*
X151003390Y-73869285D02*
X151051009Y-73916904D01*
X151051009Y-73916904D02*
X151098628Y-74012142D01*
X151098628Y-74012142D02*
X151098628Y-74393094D01*
X150574819Y-72964523D02*
X150574819Y-73154999D01*
X150574819Y-73154999D02*
X150622438Y-73250237D01*
X150622438Y-73250237D02*
X150670057Y-73297856D01*
X150670057Y-73297856D02*
X150812914Y-73393094D01*
X150812914Y-73393094D02*
X151003390Y-73440713D01*
X151003390Y-73440713D02*
X151384342Y-73440713D01*
X151384342Y-73440713D02*
X151479580Y-73393094D01*
X151479580Y-73393094D02*
X151527200Y-73345475D01*
X151527200Y-73345475D02*
X151574819Y-73250237D01*
X151574819Y-73250237D02*
X151574819Y-73059761D01*
X151574819Y-73059761D02*
X151527200Y-72964523D01*
X151527200Y-72964523D02*
X151479580Y-72916904D01*
X151479580Y-72916904D02*
X151384342Y-72869285D01*
X151384342Y-72869285D02*
X151146247Y-72869285D01*
X151146247Y-72869285D02*
X151051009Y-72916904D01*
X151051009Y-72916904D02*
X151003390Y-72964523D01*
X151003390Y-72964523D02*
X150955771Y-73059761D01*
X150955771Y-73059761D02*
X150955771Y-73250237D01*
X150955771Y-73250237D02*
X151003390Y-73345475D01*
X151003390Y-73345475D02*
X151051009Y-73393094D01*
X151051009Y-73393094D02*
X151146247Y-73440713D01*
X105813333Y-87044819D02*
X105480000Y-86568628D01*
X105241905Y-87044819D02*
X105241905Y-86044819D01*
X105241905Y-86044819D02*
X105622857Y-86044819D01*
X105622857Y-86044819D02*
X105718095Y-86092438D01*
X105718095Y-86092438D02*
X105765714Y-86140057D01*
X105765714Y-86140057D02*
X105813333Y-86235295D01*
X105813333Y-86235295D02*
X105813333Y-86378152D01*
X105813333Y-86378152D02*
X105765714Y-86473390D01*
X105765714Y-86473390D02*
X105718095Y-86521009D01*
X105718095Y-86521009D02*
X105622857Y-86568628D01*
X105622857Y-86568628D02*
X105241905Y-86568628D01*
X106718095Y-86044819D02*
X106241905Y-86044819D01*
X106241905Y-86044819D02*
X106194286Y-86521009D01*
X106194286Y-86521009D02*
X106241905Y-86473390D01*
X106241905Y-86473390D02*
X106337143Y-86425771D01*
X106337143Y-86425771D02*
X106575238Y-86425771D01*
X106575238Y-86425771D02*
X106670476Y-86473390D01*
X106670476Y-86473390D02*
X106718095Y-86521009D01*
X106718095Y-86521009D02*
X106765714Y-86616247D01*
X106765714Y-86616247D02*
X106765714Y-86854342D01*
X106765714Y-86854342D02*
X106718095Y-86949580D01*
X106718095Y-86949580D02*
X106670476Y-86997200D01*
X106670476Y-86997200D02*
X106575238Y-87044819D01*
X106575238Y-87044819D02*
X106337143Y-87044819D01*
X106337143Y-87044819D02*
X106241905Y-86997200D01*
X106241905Y-86997200D02*
X106194286Y-86949580D01*
X153048333Y-77029580D02*
X153000714Y-77077200D01*
X153000714Y-77077200D02*
X152857857Y-77124819D01*
X152857857Y-77124819D02*
X152762619Y-77124819D01*
X152762619Y-77124819D02*
X152619762Y-77077200D01*
X152619762Y-77077200D02*
X152524524Y-76981961D01*
X152524524Y-76981961D02*
X152476905Y-76886723D01*
X152476905Y-76886723D02*
X152429286Y-76696247D01*
X152429286Y-76696247D02*
X152429286Y-76553390D01*
X152429286Y-76553390D02*
X152476905Y-76362914D01*
X152476905Y-76362914D02*
X152524524Y-76267676D01*
X152524524Y-76267676D02*
X152619762Y-76172438D01*
X152619762Y-76172438D02*
X152762619Y-76124819D01*
X152762619Y-76124819D02*
X152857857Y-76124819D01*
X152857857Y-76124819D02*
X153000714Y-76172438D01*
X153000714Y-76172438D02*
X153048333Y-76220057D01*
X153619762Y-76553390D02*
X153524524Y-76505771D01*
X153524524Y-76505771D02*
X153476905Y-76458152D01*
X153476905Y-76458152D02*
X153429286Y-76362914D01*
X153429286Y-76362914D02*
X153429286Y-76315295D01*
X153429286Y-76315295D02*
X153476905Y-76220057D01*
X153476905Y-76220057D02*
X153524524Y-76172438D01*
X153524524Y-76172438D02*
X153619762Y-76124819D01*
X153619762Y-76124819D02*
X153810238Y-76124819D01*
X153810238Y-76124819D02*
X153905476Y-76172438D01*
X153905476Y-76172438D02*
X153953095Y-76220057D01*
X153953095Y-76220057D02*
X154000714Y-76315295D01*
X154000714Y-76315295D02*
X154000714Y-76362914D01*
X154000714Y-76362914D02*
X153953095Y-76458152D01*
X153953095Y-76458152D02*
X153905476Y-76505771D01*
X153905476Y-76505771D02*
X153810238Y-76553390D01*
X153810238Y-76553390D02*
X153619762Y-76553390D01*
X153619762Y-76553390D02*
X153524524Y-76601009D01*
X153524524Y-76601009D02*
X153476905Y-76648628D01*
X153476905Y-76648628D02*
X153429286Y-76743866D01*
X153429286Y-76743866D02*
X153429286Y-76934342D01*
X153429286Y-76934342D02*
X153476905Y-77029580D01*
X153476905Y-77029580D02*
X153524524Y-77077200D01*
X153524524Y-77077200D02*
X153619762Y-77124819D01*
X153619762Y-77124819D02*
X153810238Y-77124819D01*
X153810238Y-77124819D02*
X153905476Y-77077200D01*
X153905476Y-77077200D02*
X153953095Y-77029580D01*
X153953095Y-77029580D02*
X154000714Y-76934342D01*
X154000714Y-76934342D02*
X154000714Y-76743866D01*
X154000714Y-76743866D02*
X153953095Y-76648628D01*
X153953095Y-76648628D02*
X153905476Y-76601009D01*
X153905476Y-76601009D02*
X153810238Y-76553390D01*
X124398333Y-76114819D02*
X124065000Y-75638628D01*
X123826905Y-76114819D02*
X123826905Y-75114819D01*
X123826905Y-75114819D02*
X124207857Y-75114819D01*
X124207857Y-75114819D02*
X124303095Y-75162438D01*
X124303095Y-75162438D02*
X124350714Y-75210057D01*
X124350714Y-75210057D02*
X124398333Y-75305295D01*
X124398333Y-75305295D02*
X124398333Y-75448152D01*
X124398333Y-75448152D02*
X124350714Y-75543390D01*
X124350714Y-75543390D02*
X124303095Y-75591009D01*
X124303095Y-75591009D02*
X124207857Y-75638628D01*
X124207857Y-75638628D02*
X123826905Y-75638628D01*
X124779286Y-75210057D02*
X124826905Y-75162438D01*
X124826905Y-75162438D02*
X124922143Y-75114819D01*
X124922143Y-75114819D02*
X125160238Y-75114819D01*
X125160238Y-75114819D02*
X125255476Y-75162438D01*
X125255476Y-75162438D02*
X125303095Y-75210057D01*
X125303095Y-75210057D02*
X125350714Y-75305295D01*
X125350714Y-75305295D02*
X125350714Y-75400533D01*
X125350714Y-75400533D02*
X125303095Y-75543390D01*
X125303095Y-75543390D02*
X124731667Y-76114819D01*
X124731667Y-76114819D02*
X125350714Y-76114819D01*
X137303095Y-63469819D02*
X137303095Y-64279342D01*
X137303095Y-64279342D02*
X137350714Y-64374580D01*
X137350714Y-64374580D02*
X137398333Y-64422200D01*
X137398333Y-64422200D02*
X137493571Y-64469819D01*
X137493571Y-64469819D02*
X137684047Y-64469819D01*
X137684047Y-64469819D02*
X137779285Y-64422200D01*
X137779285Y-64422200D02*
X137826904Y-64374580D01*
X137826904Y-64374580D02*
X137874523Y-64279342D01*
X137874523Y-64279342D02*
X137874523Y-63469819D01*
X138779285Y-63803152D02*
X138779285Y-64469819D01*
X138541190Y-63422200D02*
X138303095Y-64136485D01*
X138303095Y-64136485D02*
X138922142Y-64136485D01*
X124398333Y-73604819D02*
X124065000Y-73128628D01*
X123826905Y-73604819D02*
X123826905Y-72604819D01*
X123826905Y-72604819D02*
X124207857Y-72604819D01*
X124207857Y-72604819D02*
X124303095Y-72652438D01*
X124303095Y-72652438D02*
X124350714Y-72700057D01*
X124350714Y-72700057D02*
X124398333Y-72795295D01*
X124398333Y-72795295D02*
X124398333Y-72938152D01*
X124398333Y-72938152D02*
X124350714Y-73033390D01*
X124350714Y-73033390D02*
X124303095Y-73081009D01*
X124303095Y-73081009D02*
X124207857Y-73128628D01*
X124207857Y-73128628D02*
X123826905Y-73128628D01*
X125350714Y-73604819D02*
X124779286Y-73604819D01*
X125065000Y-73604819D02*
X125065000Y-72604819D01*
X125065000Y-72604819D02*
X124969762Y-72747676D01*
X124969762Y-72747676D02*
X124874524Y-72842914D01*
X124874524Y-72842914D02*
X124779286Y-72890533D01*
X147994819Y-89341666D02*
X147518628Y-89674999D01*
X147994819Y-89913094D02*
X146994819Y-89913094D01*
X146994819Y-89913094D02*
X146994819Y-89532142D01*
X146994819Y-89532142D02*
X147042438Y-89436904D01*
X147042438Y-89436904D02*
X147090057Y-89389285D01*
X147090057Y-89389285D02*
X147185295Y-89341666D01*
X147185295Y-89341666D02*
X147328152Y-89341666D01*
X147328152Y-89341666D02*
X147423390Y-89389285D01*
X147423390Y-89389285D02*
X147471009Y-89436904D01*
X147471009Y-89436904D02*
X147518628Y-89532142D01*
X147518628Y-89532142D02*
X147518628Y-89913094D01*
X146994819Y-89008332D02*
X146994819Y-88341666D01*
X146994819Y-88341666D02*
X147994819Y-88770237D01*
X98352319Y-85281904D02*
X99161842Y-85281904D01*
X99161842Y-85281904D02*
X99257080Y-85234285D01*
X99257080Y-85234285D02*
X99304700Y-85186666D01*
X99304700Y-85186666D02*
X99352319Y-85091428D01*
X99352319Y-85091428D02*
X99352319Y-84900952D01*
X99352319Y-84900952D02*
X99304700Y-84805714D01*
X99304700Y-84805714D02*
X99257080Y-84758095D01*
X99257080Y-84758095D02*
X99161842Y-84710476D01*
X99161842Y-84710476D02*
X98352319Y-84710476D01*
X99352319Y-83710476D02*
X99352319Y-84281904D01*
X99352319Y-83996190D02*
X98352319Y-83996190D01*
X98352319Y-83996190D02*
X98495176Y-84091428D01*
X98495176Y-84091428D02*
X98590414Y-84186666D01*
X98590414Y-84186666D02*
X98638033Y-84281904D01*
X128970833Y-78334819D02*
X128494643Y-78334819D01*
X128494643Y-78334819D02*
X128494643Y-77334819D01*
X129827976Y-78334819D02*
X129256548Y-78334819D01*
X129542262Y-78334819D02*
X129542262Y-77334819D01*
X129542262Y-77334819D02*
X129447024Y-77477676D01*
X129447024Y-77477676D02*
X129351786Y-77572914D01*
X129351786Y-77572914D02*
X129256548Y-77620533D01*
X118868333Y-72379580D02*
X118820714Y-72427200D01*
X118820714Y-72427200D02*
X118677857Y-72474819D01*
X118677857Y-72474819D02*
X118582619Y-72474819D01*
X118582619Y-72474819D02*
X118439762Y-72427200D01*
X118439762Y-72427200D02*
X118344524Y-72331961D01*
X118344524Y-72331961D02*
X118296905Y-72236723D01*
X118296905Y-72236723D02*
X118249286Y-72046247D01*
X118249286Y-72046247D02*
X118249286Y-71903390D01*
X118249286Y-71903390D02*
X118296905Y-71712914D01*
X118296905Y-71712914D02*
X118344524Y-71617676D01*
X118344524Y-71617676D02*
X118439762Y-71522438D01*
X118439762Y-71522438D02*
X118582619Y-71474819D01*
X118582619Y-71474819D02*
X118677857Y-71474819D01*
X118677857Y-71474819D02*
X118820714Y-71522438D01*
X118820714Y-71522438D02*
X118868333Y-71570057D01*
X119773095Y-71474819D02*
X119296905Y-71474819D01*
X119296905Y-71474819D02*
X119249286Y-71951009D01*
X119249286Y-71951009D02*
X119296905Y-71903390D01*
X119296905Y-71903390D02*
X119392143Y-71855771D01*
X119392143Y-71855771D02*
X119630238Y-71855771D01*
X119630238Y-71855771D02*
X119725476Y-71903390D01*
X119725476Y-71903390D02*
X119773095Y-71951009D01*
X119773095Y-71951009D02*
X119820714Y-72046247D01*
X119820714Y-72046247D02*
X119820714Y-72284342D01*
X119820714Y-72284342D02*
X119773095Y-72379580D01*
X119773095Y-72379580D02*
X119725476Y-72427200D01*
X119725476Y-72427200D02*
X119630238Y-72474819D01*
X119630238Y-72474819D02*
X119392143Y-72474819D01*
X119392143Y-72474819D02*
X119296905Y-72427200D01*
X119296905Y-72427200D02*
X119249286Y-72379580D01*
X128508415Y-78994819D02*
X128508415Y-79804342D01*
X128508415Y-79804342D02*
X128556034Y-79899580D01*
X128556034Y-79899580D02*
X128603653Y-79947200D01*
X128603653Y-79947200D02*
X128698891Y-79994819D01*
X128698891Y-79994819D02*
X128889367Y-79994819D01*
X128889367Y-79994819D02*
X128984605Y-79947200D01*
X128984605Y-79947200D02*
X129032224Y-79899580D01*
X129032224Y-79899580D02*
X129079843Y-79804342D01*
X129079843Y-79804342D02*
X129079843Y-78994819D01*
X129508415Y-79090057D02*
X129556034Y-79042438D01*
X129556034Y-79042438D02*
X129651272Y-78994819D01*
X129651272Y-78994819D02*
X129889367Y-78994819D01*
X129889367Y-78994819D02*
X129984605Y-79042438D01*
X129984605Y-79042438D02*
X130032224Y-79090057D01*
X130032224Y-79090057D02*
X130079843Y-79185295D01*
X130079843Y-79185295D02*
X130079843Y-79280533D01*
X130079843Y-79280533D02*
X130032224Y-79423390D01*
X130032224Y-79423390D02*
X129460796Y-79994819D01*
X129460796Y-79994819D02*
X130079843Y-79994819D01*
X119684819Y-89841666D02*
X119208628Y-90174999D01*
X119684819Y-90413094D02*
X118684819Y-90413094D01*
X118684819Y-90413094D02*
X118684819Y-90032142D01*
X118684819Y-90032142D02*
X118732438Y-89936904D01*
X118732438Y-89936904D02*
X118780057Y-89889285D01*
X118780057Y-89889285D02*
X118875295Y-89841666D01*
X118875295Y-89841666D02*
X119018152Y-89841666D01*
X119018152Y-89841666D02*
X119113390Y-89889285D01*
X119113390Y-89889285D02*
X119161009Y-89936904D01*
X119161009Y-89936904D02*
X119208628Y-90032142D01*
X119208628Y-90032142D02*
X119208628Y-90413094D01*
X119018152Y-88984523D02*
X119684819Y-88984523D01*
X118637200Y-89222618D02*
X119351485Y-89460713D01*
X119351485Y-89460713D02*
X119351485Y-88841666D01*
X153048333Y-79539580D02*
X153000714Y-79587200D01*
X153000714Y-79587200D02*
X152857857Y-79634819D01*
X152857857Y-79634819D02*
X152762619Y-79634819D01*
X152762619Y-79634819D02*
X152619762Y-79587200D01*
X152619762Y-79587200D02*
X152524524Y-79491961D01*
X152524524Y-79491961D02*
X152476905Y-79396723D01*
X152476905Y-79396723D02*
X152429286Y-79206247D01*
X152429286Y-79206247D02*
X152429286Y-79063390D01*
X152429286Y-79063390D02*
X152476905Y-78872914D01*
X152476905Y-78872914D02*
X152524524Y-78777676D01*
X152524524Y-78777676D02*
X152619762Y-78682438D01*
X152619762Y-78682438D02*
X152762619Y-78634819D01*
X152762619Y-78634819D02*
X152857857Y-78634819D01*
X152857857Y-78634819D02*
X153000714Y-78682438D01*
X153000714Y-78682438D02*
X153048333Y-78730057D01*
X153524524Y-79634819D02*
X153715000Y-79634819D01*
X153715000Y-79634819D02*
X153810238Y-79587200D01*
X153810238Y-79587200D02*
X153857857Y-79539580D01*
X153857857Y-79539580D02*
X153953095Y-79396723D01*
X153953095Y-79396723D02*
X154000714Y-79206247D01*
X154000714Y-79206247D02*
X154000714Y-78825295D01*
X154000714Y-78825295D02*
X153953095Y-78730057D01*
X153953095Y-78730057D02*
X153905476Y-78682438D01*
X153905476Y-78682438D02*
X153810238Y-78634819D01*
X153810238Y-78634819D02*
X153619762Y-78634819D01*
X153619762Y-78634819D02*
X153524524Y-78682438D01*
X153524524Y-78682438D02*
X153476905Y-78730057D01*
X153476905Y-78730057D02*
X153429286Y-78825295D01*
X153429286Y-78825295D02*
X153429286Y-79063390D01*
X153429286Y-79063390D02*
X153476905Y-79158628D01*
X153476905Y-79158628D02*
X153524524Y-79206247D01*
X153524524Y-79206247D02*
X153619762Y-79253866D01*
X153619762Y-79253866D02*
X153810238Y-79253866D01*
X153810238Y-79253866D02*
X153905476Y-79206247D01*
X153905476Y-79206247D02*
X153953095Y-79158628D01*
X153953095Y-79158628D02*
X154000714Y-79063390D01*
X118178333Y-83299580D02*
X118130714Y-83347200D01*
X118130714Y-83347200D02*
X117987857Y-83394819D01*
X117987857Y-83394819D02*
X117892619Y-83394819D01*
X117892619Y-83394819D02*
X117749762Y-83347200D01*
X117749762Y-83347200D02*
X117654524Y-83251961D01*
X117654524Y-83251961D02*
X117606905Y-83156723D01*
X117606905Y-83156723D02*
X117559286Y-82966247D01*
X117559286Y-82966247D02*
X117559286Y-82823390D01*
X117559286Y-82823390D02*
X117606905Y-82632914D01*
X117606905Y-82632914D02*
X117654524Y-82537676D01*
X117654524Y-82537676D02*
X117749762Y-82442438D01*
X117749762Y-82442438D02*
X117892619Y-82394819D01*
X117892619Y-82394819D02*
X117987857Y-82394819D01*
X117987857Y-82394819D02*
X118130714Y-82442438D01*
X118130714Y-82442438D02*
X118178333Y-82490057D01*
X119035476Y-82728152D02*
X119035476Y-83394819D01*
X118797381Y-82347200D02*
X118559286Y-83061485D01*
X118559286Y-83061485D02*
X119178333Y-83061485D01*
%TO.C,J2*%
D11*
X165030000Y-99130000D02*
X165550000Y-99130000D01*
X165550000Y-101130000D01*
X165030000Y-101130000D01*
X165030000Y-99130000D01*
G36*
X165030000Y-99130000D02*
G01*
X165550000Y-99130000D01*
X165550000Y-101130000D01*
X165030000Y-101130000D01*
X165030000Y-99130000D01*
G37*
X166025000Y-97035000D02*
X166025000Y-97770000D01*
X165900000Y-99130000D02*
X143680000Y-99130000D01*
X165900000Y-98505000D02*
X165900000Y-99130000D01*
X165290000Y-97035000D02*
X166025000Y-97035000D01*
X164790000Y-98505000D02*
X164790000Y-99130000D01*
X164550000Y-101130000D02*
X164030000Y-101130000D01*
X164550000Y-99130000D02*
X164550000Y-101130000D01*
X164030000Y-101130000D02*
X164030000Y-99130000D01*
X163790000Y-98308725D02*
X163790000Y-99130000D01*
X163550000Y-101130000D02*
X163030000Y-101130000D01*
X163550000Y-99130000D02*
X163550000Y-101130000D01*
X163030000Y-101130000D02*
X163030000Y-99130000D01*
X162790000Y-98308725D02*
X162790000Y-99130000D01*
X162550000Y-101130000D02*
X162030000Y-101130000D01*
X162550000Y-99130000D02*
X162550000Y-101130000D01*
X162030000Y-101130000D02*
X162030000Y-99130000D01*
X161790000Y-98308725D02*
X161790000Y-99130000D01*
X161550000Y-101130000D02*
X161030000Y-101130000D01*
X161550000Y-99130000D02*
X161550000Y-101130000D01*
X161030000Y-101130000D02*
X161030000Y-99130000D01*
X160790000Y-98308725D02*
X160790000Y-99130000D01*
X160550000Y-101130000D02*
X160030000Y-101130000D01*
X160550000Y-99130000D02*
X160550000Y-101130000D01*
X160030000Y-101130000D02*
X160030000Y-99130000D01*
X159790000Y-98308725D02*
X159790000Y-99130000D01*
X159550000Y-101130000D02*
X159030000Y-101130000D01*
X159550000Y-99130000D02*
X159550000Y-101130000D01*
X159030000Y-101130000D02*
X159030000Y-99130000D01*
X158790000Y-98308725D02*
X158790000Y-99130000D01*
X158550000Y-101130000D02*
X158030000Y-101130000D01*
X158550000Y-99130000D02*
X158550000Y-101130000D01*
X158030000Y-101130000D02*
X158030000Y-99130000D01*
X157790000Y-98308725D02*
X157790000Y-99130000D01*
X157550000Y-101130000D02*
X157030000Y-101130000D01*
X157550000Y-99130000D02*
X157550000Y-101130000D01*
X157030000Y-101130000D02*
X157030000Y-99130000D01*
X156790000Y-98308725D02*
X156790000Y-99130000D01*
X156550000Y-101130000D02*
X156030000Y-101130000D01*
X156550000Y-99130000D02*
X156550000Y-101130000D01*
X156030000Y-101130000D02*
X156030000Y-99130000D01*
X155790000Y-98308725D02*
X155790000Y-99130000D01*
X155550000Y-101130000D02*
X155030000Y-101130000D01*
X155550000Y-99130000D02*
X155550000Y-101130000D01*
X155030000Y-101130000D02*
X155030000Y-99130000D01*
X154790000Y-98308725D02*
X154790000Y-99130000D01*
X154550000Y-101130000D02*
X154030000Y-101130000D01*
X154550000Y-99130000D02*
X154550000Y-101130000D01*
X154030000Y-101130000D02*
X154030000Y-99130000D01*
X153790000Y-98308725D02*
X153790000Y-99130000D01*
X153550000Y-101130000D02*
X153030000Y-101130000D01*
X153550000Y-99130000D02*
X153550000Y-101130000D01*
X153030000Y-101130000D02*
X153030000Y-99130000D01*
X152790000Y-98308725D02*
X152790000Y-99130000D01*
X152550000Y-101130000D02*
X152030000Y-101130000D01*
X152550000Y-99130000D02*
X152550000Y-101130000D01*
X152030000Y-101130000D02*
X152030000Y-99130000D01*
X151790000Y-98308725D02*
X151790000Y-99130000D01*
X151550000Y-101130000D02*
X151030000Y-101130000D01*
X151550000Y-99130000D02*
X151550000Y-101130000D01*
X151030000Y-101130000D02*
X151030000Y-99130000D01*
X150790000Y-98308725D02*
X150790000Y-99130000D01*
X150550000Y-101130000D02*
X150030000Y-101130000D01*
X150550000Y-99130000D02*
X150550000Y-101130000D01*
X150030000Y-101130000D02*
X150030000Y-99130000D01*
X149790000Y-98308725D02*
X149790000Y-99130000D01*
X149550000Y-101130000D02*
X149030000Y-101130000D01*
X149550000Y-99130000D02*
X149550000Y-101130000D01*
X149030000Y-101130000D02*
X149030000Y-99130000D01*
X148790000Y-98308725D02*
X148790000Y-99130000D01*
X148550000Y-101130000D02*
X148030000Y-101130000D01*
X148550000Y-99130000D02*
X148550000Y-101130000D01*
X148030000Y-101130000D02*
X148030000Y-99130000D01*
X147790000Y-98308725D02*
X147790000Y-99130000D01*
X147550000Y-101130000D02*
X147030000Y-101130000D01*
X147550000Y-99130000D02*
X147550000Y-101130000D01*
X147030000Y-101130000D02*
X147030000Y-99130000D01*
X146790000Y-98308725D02*
X146790000Y-99130000D01*
X146550000Y-101130000D02*
X146030000Y-101130000D01*
X146550000Y-99130000D02*
X146550000Y-101130000D01*
X146030000Y-101130000D02*
X146030000Y-99130000D01*
X145790000Y-98308725D02*
X145790000Y-99130000D01*
X145550000Y-101130000D02*
X145030000Y-101130000D01*
X145550000Y-99130000D02*
X145550000Y-101130000D01*
X145030000Y-101130000D02*
X145030000Y-99130000D01*
X144790000Y-98308725D02*
X144790000Y-99130000D01*
X144550000Y-101130000D02*
X144030000Y-101130000D01*
X144550000Y-99130000D02*
X144550000Y-101130000D01*
X144030000Y-101130000D02*
X144030000Y-99130000D01*
X143680000Y-99130000D02*
X143680000Y-98180030D01*
%TO.C,J1*%
X139220000Y-98920000D02*
X139740000Y-98920000D01*
X139740000Y-100920000D01*
X139220000Y-100920000D01*
X139220000Y-98920000D01*
G36*
X139220000Y-98920000D02*
G01*
X139740000Y-98920000D01*
X139740000Y-100920000D01*
X139220000Y-100920000D01*
X139220000Y-98920000D01*
G37*
X140215000Y-96825000D02*
X140215000Y-97560000D01*
X140090000Y-98920000D02*
X117870000Y-98920000D01*
X140090000Y-98295000D02*
X140090000Y-98920000D01*
X139480000Y-96825000D02*
X140215000Y-96825000D01*
X138980000Y-98295000D02*
X138980000Y-98920000D01*
X138740000Y-100920000D02*
X138220000Y-100920000D01*
X138740000Y-98920000D02*
X138740000Y-100920000D01*
X138220000Y-100920000D02*
X138220000Y-98920000D01*
X137980000Y-98098725D02*
X137980000Y-98920000D01*
X137740000Y-100920000D02*
X137220000Y-100920000D01*
X137740000Y-98920000D02*
X137740000Y-100920000D01*
X137220000Y-100920000D02*
X137220000Y-98920000D01*
X136980000Y-98098725D02*
X136980000Y-98920000D01*
X136740000Y-100920000D02*
X136220000Y-100920000D01*
X136740000Y-98920000D02*
X136740000Y-100920000D01*
X136220000Y-100920000D02*
X136220000Y-98920000D01*
X135980000Y-98098725D02*
X135980000Y-98920000D01*
X135740000Y-100920000D02*
X135220000Y-100920000D01*
X135740000Y-98920000D02*
X135740000Y-100920000D01*
X135220000Y-100920000D02*
X135220000Y-98920000D01*
X134980000Y-98098725D02*
X134980000Y-98920000D01*
X134740000Y-100920000D02*
X134220000Y-100920000D01*
X134740000Y-98920000D02*
X134740000Y-100920000D01*
X134220000Y-100920000D02*
X134220000Y-98920000D01*
X133980000Y-98098725D02*
X133980000Y-98920000D01*
X133740000Y-100920000D02*
X133220000Y-100920000D01*
X133740000Y-98920000D02*
X133740000Y-100920000D01*
X133220000Y-100920000D02*
X133220000Y-98920000D01*
X132980000Y-98098725D02*
X132980000Y-98920000D01*
X132740000Y-100920000D02*
X132220000Y-100920000D01*
X132740000Y-98920000D02*
X132740000Y-100920000D01*
X132220000Y-100920000D02*
X132220000Y-98920000D01*
X131980000Y-98098725D02*
X131980000Y-98920000D01*
X131740000Y-100920000D02*
X131220000Y-100920000D01*
X131740000Y-98920000D02*
X131740000Y-100920000D01*
X131220000Y-100920000D02*
X131220000Y-98920000D01*
X130980000Y-98098725D02*
X130980000Y-98920000D01*
X130740000Y-100920000D02*
X130220000Y-100920000D01*
X130740000Y-98920000D02*
X130740000Y-100920000D01*
X130220000Y-100920000D02*
X130220000Y-98920000D01*
X129980000Y-98098725D02*
X129980000Y-98920000D01*
X129740000Y-100920000D02*
X129220000Y-100920000D01*
X129740000Y-98920000D02*
X129740000Y-100920000D01*
X129220000Y-100920000D02*
X129220000Y-98920000D01*
X128980000Y-98098725D02*
X128980000Y-98920000D01*
X128740000Y-100920000D02*
X128220000Y-100920000D01*
X128740000Y-98920000D02*
X128740000Y-100920000D01*
X128220000Y-100920000D02*
X128220000Y-98920000D01*
X127980000Y-98098725D02*
X127980000Y-98920000D01*
X127740000Y-100920000D02*
X127220000Y-100920000D01*
X127740000Y-98920000D02*
X127740000Y-100920000D01*
X127220000Y-100920000D02*
X127220000Y-98920000D01*
X126980000Y-98098725D02*
X126980000Y-98920000D01*
X126740000Y-100920000D02*
X126220000Y-100920000D01*
X126740000Y-98920000D02*
X126740000Y-100920000D01*
X126220000Y-100920000D02*
X126220000Y-98920000D01*
X125980000Y-98098725D02*
X125980000Y-98920000D01*
X125740000Y-100920000D02*
X125220000Y-100920000D01*
X125740000Y-98920000D02*
X125740000Y-100920000D01*
X125220000Y-100920000D02*
X125220000Y-98920000D01*
X124980000Y-98098725D02*
X124980000Y-98920000D01*
X124740000Y-100920000D02*
X124220000Y-100920000D01*
X124740000Y-98920000D02*
X124740000Y-100920000D01*
X124220000Y-100920000D02*
X124220000Y-98920000D01*
X123980000Y-98098725D02*
X123980000Y-98920000D01*
X123740000Y-100920000D02*
X123220000Y-100920000D01*
X123740000Y-98920000D02*
X123740000Y-100920000D01*
X123220000Y-100920000D02*
X123220000Y-98920000D01*
X122980000Y-98098725D02*
X122980000Y-98920000D01*
X122740000Y-100920000D02*
X122220000Y-100920000D01*
X122740000Y-98920000D02*
X122740000Y-100920000D01*
X122220000Y-100920000D02*
X122220000Y-98920000D01*
X121980000Y-98098725D02*
X121980000Y-98920000D01*
X121740000Y-100920000D02*
X121220000Y-100920000D01*
X121740000Y-98920000D02*
X121740000Y-100920000D01*
X121220000Y-100920000D02*
X121220000Y-98920000D01*
X120980000Y-98098725D02*
X120980000Y-98920000D01*
X120740000Y-100920000D02*
X120220000Y-100920000D01*
X120740000Y-98920000D02*
X120740000Y-100920000D01*
X120220000Y-100920000D02*
X120220000Y-98920000D01*
X119980000Y-98098725D02*
X119980000Y-98920000D01*
X119740000Y-100920000D02*
X119220000Y-100920000D01*
X119740000Y-98920000D02*
X119740000Y-100920000D01*
X119220000Y-100920000D02*
X119220000Y-98920000D01*
X118980000Y-98098725D02*
X118980000Y-98920000D01*
X118740000Y-100920000D02*
X118220000Y-100920000D01*
X118740000Y-98920000D02*
X118740000Y-100920000D01*
X118220000Y-100920000D02*
X118220000Y-98920000D01*
X117870000Y-98920000D02*
X117870000Y-97970030D01*
%TO.C,C10*%
X127730580Y-69640000D02*
X127449420Y-69640000D01*
X127730580Y-70660000D02*
X127449420Y-70660000D01*
%TO.C,U3*%
D12*
X120565000Y-73461000D02*
X117565000Y-73461000D01*
X120565000Y-75659000D02*
X117565000Y-75659000D01*
D13*
X121565000Y-75360000D02*
G75*
G02*
X121365000Y-75360000I-100000J0D01*
G01*
X121365000Y-75360000D02*
G75*
G02*
X121565000Y-75360000I100000J0D01*
G01*
%TO.C,C6*%
D11*
X114210000Y-70665580D02*
X114210000Y-70384420D01*
X115230000Y-70665580D02*
X115230000Y-70384420D01*
%TO.C,C2*%
X129845580Y-65070000D02*
X129564420Y-65070000D01*
X129845580Y-66090000D02*
X129564420Y-66090000D01*
%TO.C,JBUS1*%
X99995000Y-72135000D02*
X99995000Y-81325000D01*
X102725000Y-72135000D02*
X99995000Y-72135000D01*
X102725000Y-81325000D02*
X99995000Y-81325000D01*
X106325000Y-72135000D02*
X105425000Y-72135000D01*
X106325000Y-81325000D02*
X105425000Y-81325000D01*
X109405000Y-72255000D02*
X109405000Y-81205000D01*
%TO.C,R3*%
X125202258Y-64997500D02*
X124727742Y-64997500D01*
X125202258Y-66042500D02*
X124727742Y-66042500D01*
%TO.C,D1*%
X170610000Y-75510000D02*
X170610000Y-81010000D01*
X170610000Y-75510000D02*
X177610000Y-75510000D01*
X170610000Y-81010000D02*
X177160000Y-81010000D01*
X171410000Y-79160000D02*
X171410000Y-77360000D01*
X176810000Y-79160000D02*
X176810000Y-77360000D01*
X177160000Y-81010000D02*
X177610000Y-80560000D01*
X177610000Y-80560000D02*
X177610000Y-75510000D01*
%TO.C,C12*%
X173784420Y-71510000D02*
X174065580Y-71510000D01*
X173784420Y-72530000D02*
X174065580Y-72530000D01*
%TO.C,RESET1*%
X160570000Y-82160000D02*
X160570000Y-84160000D01*
X161620000Y-80860000D02*
X162070000Y-80410000D01*
X161620000Y-85460000D02*
X162070000Y-85910000D01*
X162070000Y-80410000D02*
X164570000Y-80410000D01*
X162070000Y-85910000D02*
X164570000Y-85910000D01*
X165020000Y-80860000D02*
X164570000Y-80410000D01*
X165020000Y-85460000D02*
X164570000Y-85910000D01*
X166070000Y-82160000D02*
X166070000Y-84160000D01*
%TO.C,C1*%
X121800000Y-82075580D02*
X121800000Y-81794420D01*
X122820000Y-82075580D02*
X122820000Y-81794420D01*
%TO.C,BOOT1*%
X160570000Y-71290000D02*
X160570000Y-73290000D01*
X161620000Y-69990000D02*
X162070000Y-69540000D01*
X161620000Y-74590000D02*
X162070000Y-75040000D01*
X162070000Y-69540000D02*
X164570000Y-69540000D01*
X162070000Y-75040000D02*
X164570000Y-75040000D01*
X165020000Y-69990000D02*
X164570000Y-69540000D01*
X165020000Y-74590000D02*
X164570000Y-75040000D01*
X166070000Y-71290000D02*
X166070000Y-73290000D01*
%TO.C,D2*%
X120540000Y-88260000D02*
X120540000Y-91460000D01*
X125300000Y-88260000D02*
X120540000Y-88260000D01*
X125300000Y-91460000D02*
X120540000Y-91460000D01*
%TO.C,C7*%
X114424420Y-74050000D02*
X114705580Y-74050000D01*
X114424420Y-75070000D02*
X114705580Y-75070000D01*
%TO.C,C3*%
X118555580Y-79600000D02*
X118274420Y-79600000D01*
X118555580Y-80620000D02*
X118274420Y-80620000D01*
%TO.C,C11*%
X131664420Y-69520000D02*
X131945580Y-69520000D01*
X131664420Y-70540000D02*
X131945580Y-70540000D01*
%TO.C,J_BAT1*%
X111135000Y-81095000D02*
X112135000Y-81095000D01*
X111135000Y-84607500D02*
X111135000Y-81095000D01*
X112478494Y-80380000D02*
X112695000Y-80755000D01*
X112695000Y-80755000D02*
X112911506Y-80380000D01*
X112911506Y-80380000D02*
X112478494Y-80380000D01*
X113255000Y-81095000D02*
X113335000Y-81095000D01*
X114435000Y-85665000D02*
X112155000Y-85665000D01*
X114455000Y-81095000D02*
X115455000Y-81095000D01*
X115455000Y-81095000D02*
X115455000Y-84607500D01*
%TO.C,R8*%
X143987500Y-89427258D02*
X143987500Y-88952742D01*
X145032500Y-89427258D02*
X145032500Y-88952742D01*
%TO.C,R6*%
X152027500Y-73892258D02*
X152027500Y-73417742D01*
X153072500Y-73892258D02*
X153072500Y-73417742D01*
%TO.C,R5*%
X106217258Y-84637500D02*
X105742742Y-84637500D01*
X106217258Y-85682500D02*
X105742742Y-85682500D01*
%TO.C,C8*%
X153074420Y-77590000D02*
X153355580Y-77590000D01*
X153074420Y-78610000D02*
X153355580Y-78610000D01*
%TO.C,R2*%
X124327742Y-76567500D02*
X124802258Y-76567500D01*
X124327742Y-77612500D02*
X124802258Y-77612500D01*
%TO.C,U4*%
D12*
X135140000Y-65375000D02*
X150540000Y-65375000D01*
X135140000Y-70425000D02*
X135140000Y-65375000D01*
X150540000Y-65375000D02*
X150540000Y-70425000D01*
X150540000Y-85875000D02*
X135140000Y-85875000D01*
D13*
X134490000Y-72200000D02*
G75*
G02*
X134290000Y-72200000I-100000J0D01*
G01*
X134290000Y-72200000D02*
G75*
G02*
X134490000Y-72200000I100000J0D01*
G01*
%TO.C,R1*%
D11*
X124327742Y-74057500D02*
X124802258Y-74057500D01*
X124327742Y-75102500D02*
X124802258Y-75102500D01*
%TO.C,R7*%
X148447500Y-89412258D02*
X148447500Y-88937742D01*
X149492500Y-89412258D02*
X149492500Y-88937742D01*
%TO.C,U1*%
X99712500Y-84705568D02*
X99712500Y-83910000D01*
X102482500Y-83910000D02*
X102482500Y-85130000D01*
X99707500Y-85000000D02*
X99517500Y-85140000D01*
X99517500Y-84860000D01*
X99707500Y-85000000D01*
G36*
X99707500Y-85000000D02*
G01*
X99517500Y-85140000D01*
X99517500Y-84860000D01*
X99707500Y-85000000D01*
G37*
%TO.C,C5*%
X119175580Y-70080000D02*
X118894420Y-70080000D01*
X119175580Y-71100000D02*
X118894420Y-71100000D01*
%TO.C,U2*%
X127640000Y-83620000D02*
X127640000Y-83850000D01*
X127640000Y-83850000D02*
X128615000Y-83850000D01*
X127930000Y-80630000D02*
X128615000Y-80630000D01*
X129885000Y-80630000D02*
X130860000Y-80630000D01*
X129885000Y-83850000D02*
X130860000Y-83850000D01*
X130860000Y-80630000D02*
X130860000Y-80860000D01*
X130860000Y-83620000D02*
X130860000Y-83850000D01*
X127610000Y-80630000D02*
X127330000Y-80630000D01*
X127610000Y-80350000D01*
X127610000Y-80630000D01*
G36*
X127610000Y-80630000D02*
G01*
X127330000Y-80630000D01*
X127610000Y-80350000D01*
X127610000Y-80630000D01*
G37*
%TO.C,R4*%
X117277500Y-89437742D02*
X117277500Y-89912258D01*
X118322500Y-89437742D02*
X118322500Y-89912258D01*
%TO.C,C9*%
X153074420Y-80100000D02*
X153355580Y-80100000D01*
X153074420Y-81120000D02*
X153355580Y-81120000D01*
%TO.C,C4*%
X118204420Y-83860000D02*
X118485580Y-83860000D01*
X118204420Y-84880000D02*
X118485580Y-84880000D01*
%TD*%
M02*
