%TF.GenerationSoftware,KiCad,Pcbnew,10.0.1*%
%TF.CreationDate,2026-06-01T23:34:02+05:30*%
%TF.ProjectId,Untitled,556e7469-746c-4656-942e-6b696361645f,2*%
%TF.SameCoordinates,Original*%
%TF.FileFunction,Soldermask,Top*%
%TF.FilePolarity,Negative*%
%FSLAX46Y46*%
G04 Gerber Fmt 4.6, Leading zero omitted, Abs format (unit mm)*
G04 Created by KiCad (PCBNEW 10.0.1) date 2026-06-01 23:34:02*
%MOMM*%
%LPD*%
G01*
G04 APERTURE LIST*
G04 Aperture macros list*
%AMRoundRect*
0 Rectangle with rounded corners*
0 $1 Rounding radius*
0 $2 $3 $4 $5 $6 $7 $8 $9 X,Y pos of 4 corners*
0 Add a 4 corners polygon primitive as box body*
4,1,4,$2,$3,$4,$5,$6,$7,$8,$9,$2,$3,0*
0 Add four circle primitives for the rounded corners*
1,1,$1+$1,$2,$3*
1,1,$1+$1,$4,$5*
1,1,$1+$1,$6,$7*
1,1,$1+$1,$8,$9*
0 Add four rect primitives between the rounded corners*
20,1,$1+$1,$2,$3,$4,$5,0*
20,1,$1+$1,$4,$5,$6,$7,0*
20,1,$1+$1,$6,$7,$8,$9,0*
20,1,$1+$1,$8,$9,$2,$3,0*%
%AMFreePoly0*
4,1,21,-0.125000,1.200000,0.125000,1.200000,0.125000,1.700000,0.375000,1.700000,0.375000,1.200000,0.825000,1.200000,0.825000,-1.200000,0.375000,-1.200000,0.375000,-1.700000,0.125000,-1.700000,0.125000,-1.200000,-0.125000,-1.200000,-0.125000,-1.700000,-0.375000,-1.700000,-0.375000,-1.200000,-0.825000,-1.200000,-0.825000,1.200000,-0.375000,1.200000,-0.375000,1.700000,-0.125000,1.700000,
-0.125000,1.200000,-0.125000,1.200000,$1*%
G04 Aperture macros list end*
%ADD10C,0.010000*%
%ADD11C,0.850000*%
%ADD12R,0.850000X0.850000*%
%ADD13RoundRect,0.225000X0.225000X0.250000X-0.225000X0.250000X-0.225000X-0.250000X0.225000X-0.250000X0*%
%ADD14RoundRect,0.044450X0.875550X0.590550X-0.875550X0.590550X-0.875550X-0.590550X0.875550X-0.590550X0*%
%ADD15RoundRect,0.016590X0.505410X0.220410X-0.505410X0.220410X-0.505410X-0.220410X0.505410X-0.220410X0*%
%ADD16RoundRect,0.102000X0.812500X0.712500X-0.812500X0.712500X-0.812500X-0.712500X0.812500X-0.712500X0*%
%ADD17RoundRect,0.225000X0.250000X-0.225000X0.250000X0.225000X-0.250000X0.225000X-0.250000X-0.225000X0*%
%ADD18C,0.700000*%
%ADD19O,2.400000X0.900000*%
%ADD20O,1.700000X0.900000*%
%ADD21RoundRect,0.200000X0.200000X0.275000X-0.200000X0.275000X-0.200000X-0.275000X0.200000X-0.275000X0*%
%ADD22RoundRect,0.090000X-0.660000X-0.360000X0.660000X-0.360000X0.660000X0.360000X-0.660000X0.360000X0*%
%ADD23RoundRect,0.225000X-0.225000X-0.250000X0.225000X-0.250000X0.225000X0.250000X-0.225000X0.250000X0*%
%ADD24R,1.700000X1.000000*%
%ADD25RoundRect,0.250000X-0.500000X-1.050000X0.500000X-1.050000X0.500000X1.050000X-0.500000X1.050000X0*%
%ADD26RoundRect,0.175000X-0.175000X-0.225000X0.175000X-0.225000X0.175000X0.225000X-0.175000X0.225000X0*%
%ADD27RoundRect,0.150000X-0.150000X-0.275000X0.150000X-0.275000X0.150000X0.275000X-0.150000X0.275000X0*%
%ADD28RoundRect,0.200000X0.275000X-0.200000X0.275000X0.200000X-0.275000X0.200000X-0.275000X-0.200000X0*%
%ADD29RoundRect,0.200000X-0.200000X-0.275000X0.200000X-0.275000X0.200000X0.275000X-0.200000X0.275000X0*%
%ADD30RoundRect,0.102000X-0.400000X-0.200000X0.400000X-0.200000X0.400000X0.200000X-0.400000X0.200000X0*%
%ADD31RoundRect,0.102000X-0.200000X-0.400000X0.200000X-0.400000X0.200000X0.400000X-0.200000X0.400000X0*%
%ADD32RoundRect,0.102000X-0.600000X-0.600000X0.600000X-0.600000X0.600000X0.600000X-0.600000X0.600000X0*%
%ADD33RoundRect,0.102000X-0.400000X-0.400000X0.400000X-0.400000X0.400000X0.400000X-0.400000X0.400000X0*%
%ADD34RoundRect,0.062500X0.062500X-0.250000X0.062500X0.250000X-0.062500X0.250000X-0.062500X-0.250000X0*%
%ADD35RoundRect,0.112500X0.112500X-0.237500X0.112500X0.237500X-0.112500X0.237500X-0.112500X-0.237500X0*%
%ADD36RoundRect,0.112500X0.112500X-0.175000X0.112500X0.175000X-0.112500X0.175000X-0.112500X-0.175000X0*%
%ADD37RoundRect,0.075000X0.212500X0.075000X-0.212500X0.075000X-0.212500X-0.075000X0.212500X-0.075000X0*%
%ADD38RoundRect,0.060000X-0.240000X-0.060000X0.240000X-0.060000X0.240000X0.060000X-0.240000X0.060000X0*%
%ADD39FreePoly0,0.000000*%
%ADD40RoundRect,0.200000X-0.275000X0.200000X-0.275000X-0.200000X0.275000X-0.200000X0.275000X0.200000X0*%
G04 APERTURE END LIST*
D10*
%TO.C,U4*%
X141890000Y-77200000D02*
X140490000Y-77200000D01*
X140490000Y-76450000D01*
X141140000Y-75800000D01*
X141890000Y-75800000D01*
X141890000Y-77200000D01*
G36*
X141890000Y-77200000D02*
G01*
X140490000Y-77200000D01*
X140490000Y-76450000D01*
X141140000Y-75800000D01*
X141890000Y-75800000D01*
X141890000Y-77200000D01*
G37*
%TD*%
D11*
%TO.C,J2*%
X144290000Y-97770000D03*
X145290000Y-97770000D03*
X146290000Y-97770000D03*
X147290000Y-97770000D03*
X148290000Y-97770000D03*
X149290000Y-97770000D03*
X150290000Y-97770000D03*
X151290000Y-97770000D03*
X152290000Y-97770000D03*
X153290000Y-97770000D03*
X154290000Y-97770000D03*
X155290000Y-97770000D03*
X156290000Y-97770000D03*
X157290000Y-97770000D03*
X158290000Y-97770000D03*
X159290000Y-97770000D03*
X160290000Y-97770000D03*
X161290000Y-97770000D03*
X162290000Y-97770000D03*
X163290000Y-97770000D03*
X164290000Y-97770000D03*
D12*
X165290000Y-97770000D03*
%TD*%
D11*
%TO.C,J1*%
X118480000Y-97560000D03*
X119480000Y-97560000D03*
X120480000Y-97560000D03*
X121480000Y-97560000D03*
X122480000Y-97560000D03*
X123480000Y-97560000D03*
X124480000Y-97560000D03*
X125480000Y-97560000D03*
X126480000Y-97560000D03*
X127480000Y-97560000D03*
X128480000Y-97560000D03*
X129480000Y-97560000D03*
X130480000Y-97560000D03*
X131480000Y-97560000D03*
X132480000Y-97560000D03*
X133480000Y-97560000D03*
X134480000Y-97560000D03*
X135480000Y-97560000D03*
X136480000Y-97560000D03*
X137480000Y-97560000D03*
X138480000Y-97560000D03*
D12*
X139480000Y-97560000D03*
%TD*%
D13*
%TO.C,C10*%
X128365000Y-70150000D03*
X126815000Y-70150000D03*
%TD*%
D14*
%TO.C,U3*%
X120500000Y-75310000D03*
D15*
X120500000Y-74810000D03*
X120500000Y-74310000D03*
X120500000Y-73810000D03*
X117630000Y-73810000D03*
X117630000Y-74310000D03*
X117630000Y-74810000D03*
X117630000Y-75310000D03*
D16*
X119065000Y-74560000D03*
%TD*%
D17*
%TO.C,C6*%
X114720000Y-71300000D03*
X114720000Y-69750000D03*
%TD*%
D13*
%TO.C,C2*%
X130480000Y-65580000D03*
X128930000Y-65580000D03*
%TD*%
D18*
%TO.C,JBUS1*%
X108725000Y-73755000D03*
X108725000Y-74605000D03*
X108725000Y-75455000D03*
X108725000Y-76305000D03*
X108725000Y-77155000D03*
X108725000Y-78005000D03*
X108725000Y-78855000D03*
X108725000Y-79705000D03*
X107375000Y-79705000D03*
X107375000Y-78855000D03*
X107375000Y-78005000D03*
X107375000Y-77155000D03*
X107375000Y-76305000D03*
X107375000Y-75455000D03*
X107375000Y-74605000D03*
X107375000Y-73755000D03*
D19*
X107745000Y-72405000D03*
D20*
X104365000Y-72405000D03*
D19*
X107745000Y-81055000D03*
D20*
X104365000Y-81055000D03*
%TD*%
D21*
%TO.C,R3*%
X125790000Y-65520000D03*
X124140000Y-65520000D03*
%TD*%
D22*
%TO.C,D1*%
X171660000Y-76610000D03*
X171660000Y-79910000D03*
X176560000Y-79910000D03*
X176560000Y-76610000D03*
%TD*%
D23*
%TO.C,C12*%
X173150000Y-72020000D03*
X174700000Y-72020000D03*
%TD*%
D24*
%TO.C,RESET1*%
X160170000Y-81260000D03*
X166470000Y-81260000D03*
X160170000Y-85060000D03*
X166470000Y-85060000D03*
%TD*%
D17*
%TO.C,C1*%
X122310000Y-82710000D03*
X122310000Y-81160000D03*
%TD*%
D24*
%TO.C,BOOT1*%
X160170000Y-70390000D03*
X166470000Y-70390000D03*
X160170000Y-74190000D03*
X166470000Y-74190000D03*
%TD*%
D25*
%TO.C,D2*%
X124550000Y-89860000D03*
X121550000Y-89860000D03*
%TD*%
D23*
%TO.C,C7*%
X113790000Y-74560000D03*
X115340000Y-74560000D03*
%TD*%
D13*
%TO.C,C3*%
X119190000Y-80110000D03*
X117640000Y-80110000D03*
%TD*%
D23*
%TO.C,C11*%
X131030000Y-70030000D03*
X132580000Y-70030000D03*
%TD*%
D26*
%TO.C,J_BAT1*%
X111545000Y-85267500D03*
X115045000Y-85267500D03*
D27*
X112695000Y-81492500D03*
X113895000Y-81492500D03*
%TD*%
D28*
%TO.C,R8*%
X144510000Y-90015000D03*
X144510000Y-88365000D03*
%TD*%
%TO.C,R6*%
X152550000Y-74480000D03*
X152550000Y-72830000D03*
%TD*%
D21*
%TO.C,R5*%
X106805000Y-85160000D03*
X105155000Y-85160000D03*
%TD*%
D23*
%TO.C,C8*%
X152440000Y-78100000D03*
X153990000Y-78100000D03*
%TD*%
D29*
%TO.C,R2*%
X123740000Y-77090000D03*
X125390000Y-77090000D03*
%TD*%
D30*
%TO.C,U4*%
X135840000Y-72200000D03*
X135840000Y-73050000D03*
X135840000Y-73900000D03*
X135840000Y-74750000D03*
X135840000Y-75600000D03*
X135840000Y-76450000D03*
X135840000Y-77300000D03*
X135840000Y-78150000D03*
X135840000Y-79000000D03*
X135840000Y-79850000D03*
X135840000Y-80700000D03*
X135840000Y-81550000D03*
X135840000Y-82400000D03*
X135840000Y-83250000D03*
X135840000Y-84100000D03*
D31*
X136890000Y-85150000D03*
X137740000Y-85150000D03*
X138590000Y-85150000D03*
X139440000Y-85150000D03*
X140290000Y-85150000D03*
X141140000Y-85150000D03*
X141990000Y-85150000D03*
X142840000Y-85150000D03*
X143690000Y-85150000D03*
X144540000Y-85150000D03*
X145390000Y-85150000D03*
X146240000Y-85150000D03*
X147090000Y-85150000D03*
X147940000Y-85150000D03*
X148790000Y-85150000D03*
D30*
X149840000Y-84100000D03*
X149840000Y-83250000D03*
X149840000Y-82400000D03*
X149840000Y-81550000D03*
X149840000Y-80700000D03*
X149840000Y-79850000D03*
X149840000Y-79000000D03*
X149840000Y-78150000D03*
X149840000Y-77300000D03*
X149840000Y-76450000D03*
X149840000Y-75600000D03*
X149840000Y-74750000D03*
X149840000Y-73900000D03*
X149840000Y-73050000D03*
X149840000Y-72200000D03*
D31*
X148790000Y-71150000D03*
X147940000Y-71150000D03*
X147090000Y-71150000D03*
X146240000Y-71150000D03*
X145390000Y-71150000D03*
X144540000Y-71150000D03*
X143690000Y-71150000D03*
X142840000Y-71150000D03*
X141990000Y-71150000D03*
X141140000Y-71150000D03*
X140290000Y-71150000D03*
X139440000Y-71150000D03*
X138590000Y-71150000D03*
X137740000Y-71150000D03*
X136890000Y-71150000D03*
D32*
X142840000Y-78150000D03*
X142840000Y-76500000D03*
X144490000Y-76500000D03*
X144490000Y-78150000D03*
X144490000Y-79800000D03*
X142840000Y-79800000D03*
X141190000Y-79800000D03*
X141190000Y-78150000D03*
D33*
X135840000Y-71150000D03*
X135840000Y-85150000D03*
X149840000Y-85150000D03*
X149840000Y-71150000D03*
%TD*%
D29*
%TO.C,R1*%
X123740000Y-74580000D03*
X125390000Y-74580000D03*
%TD*%
D28*
%TO.C,R7*%
X148970000Y-90000000D03*
X148970000Y-88350000D03*
%TD*%
D34*
%TO.C,U1*%
X100097500Y-84907500D03*
X100597500Y-84907500D03*
D35*
X101097500Y-84870000D03*
D34*
X101597500Y-84907500D03*
X102097500Y-84907500D03*
X102097500Y-84132500D03*
X101597500Y-84132500D03*
D36*
X101097500Y-84107500D03*
D34*
X100597500Y-84132500D03*
X100097500Y-84132500D03*
%TD*%
D37*
%TO.C,L1*%
X129475000Y-76880000D03*
X128800000Y-76880000D03*
%TD*%
D13*
%TO.C,C5*%
X119810000Y-70590000D03*
X118260000Y-70590000D03*
%TD*%
D38*
%TO.C,U2*%
X127850000Y-81240000D03*
X127850000Y-81740000D03*
X127850000Y-82240000D03*
X127850000Y-82740000D03*
X127850000Y-83240000D03*
X130650000Y-83240000D03*
X130650000Y-82740000D03*
X130650000Y-82240000D03*
X130650000Y-81740000D03*
X130650000Y-81240000D03*
D39*
X129250000Y-82240000D03*
%TD*%
D40*
%TO.C,R4*%
X117800000Y-88850000D03*
X117800000Y-90500000D03*
%TD*%
D23*
%TO.C,C9*%
X152440000Y-80610000D03*
X153990000Y-80610000D03*
%TD*%
%TO.C,C4*%
X117570000Y-84370000D03*
X119120000Y-84370000D03*
%TD*%
M02*
