M48
; DRILL file KiCad 10.0.1 date 2026-06-01T23:34:25
; FORMAT={-:-/ absolute / metric / decimal}
; #@! TF.CreationDate,2026-06-01T23:34:25+05:30
; #@! TF.GenerationSoftware,Kicad,Pcbnew,10.0.1
; #@! TF.FileFunction,Plated,1,2,PTH
FMAT,2
METRIC
; #@! TA.AperFunction,Plated,PTH,ViaDrill
T1C0.300
; #@! TA.AperFunction,Plated,PTH,ComponentDrill
T2C0.300
; #@! TA.AperFunction,Plated,PTH,ComponentDrill
T3C0.400
; #@! TA.AperFunction,Plated,PTH,ComponentDrill
T4C0.500
; #@! TA.AperFunction,Plated,PTH,ComponentDrill
T5C0.600
%
G90
G05
T1
X101.39Y-82.95
X102.03Y-86.46
X106.75Y-82.77
X108.64Y-82.91
X110.15Y-79.34
X110.26Y-76.92
X115.34Y-76.38
X115.39Y-78.49
X115.47Y-89.57
X118.485Y-82.455
X118.84Y-78.62
X121.19Y-76.27
X121.4Y-79.03
X122.59Y-67.78
X123.1Y-78.73
X125.39Y-79.69
X126.1Y-83.09
X126.76Y-83.6
X129.0Y-84.7
X132.8Y-71.4
X133.05Y-72.7
X133.62Y-83.08
X133.7Y-82.1
X139.92Y-79.17
X143.84Y-83.31
X148.43Y-73.65
X157.2Y-81.65
T2
X128.675Y-82.24
X129.25Y-81.29
X129.25Y-83.19
X129.825Y-82.24
T3
X107.375Y-73.755
X107.375Y-74.605
X107.375Y-75.455
X107.375Y-76.305
X107.375Y-77.155
X107.375Y-78.005
X107.375Y-78.855
X107.375Y-79.705
X108.725Y-73.755
X108.725Y-74.605
X108.725Y-75.455
X108.725Y-76.305
X108.725Y-77.155
X108.725Y-78.005
X108.725Y-78.855
X108.725Y-79.705
T4
X118.48Y-97.56
X119.48Y-97.56
X120.48Y-97.56
X121.48Y-97.56
X122.48Y-97.56
X123.48Y-97.56
X124.48Y-97.56
X125.48Y-97.56
X126.48Y-97.56
X127.48Y-97.56
X128.48Y-97.56
X129.48Y-97.56
X130.48Y-97.56
X131.48Y-97.56
X132.48Y-97.56
X133.48Y-97.56
X134.48Y-97.56
X135.48Y-97.56
X136.48Y-97.56
X137.48Y-97.56
X138.48Y-97.56
X139.48Y-97.56
X144.29Y-97.77
X145.29Y-97.77
X146.29Y-97.77
X147.29Y-97.77
X148.29Y-97.77
X149.29Y-97.77
X150.29Y-97.77
X151.29Y-97.77
X152.29Y-97.77
X153.29Y-97.77
X154.29Y-97.77
X155.29Y-97.77
X156.29Y-97.77
X157.29Y-97.77
X158.29Y-97.77
X159.29Y-97.77
X160.29Y-97.77
X161.29Y-97.77
X162.29Y-97.77
X163.29Y-97.77
X164.29Y-97.77
X165.29Y-97.77
T5
G00X104.765Y-72.405
M15
G01X103.965Y-72.405
M16
G05
G00X104.765Y-81.055
M15
G01X103.965Y-81.055
M16
G05
G00X108.495Y-72.405
M15
G01X106.995Y-72.405
M16
G05
G00X108.495Y-81.055
M15
G01X106.995Y-81.055
M16
G05
M30
